<svg width="20" height="20" viewBox="0 0 20 20" fill="none" xmlns="http://www.w3.org/2000/svg">
<path fill-rule="evenodd" clip-rule="evenodd" d="M6.53251 2.44769C6.14554 2.48572 5.92066 2.55522 5.73812 2.66032C5.55536 2.76554 5.38249 2.92495 5.15584 3.23967C4.91971 3.56758 4.66134 4.01104 4.28245 4.66405C4.28243 4.6641 4.28248 4.66401 4.28245 4.66405L2.5019 7.73442C2.12108 8.39036 1.86289 8.83693 1.69488 9.20597C1.53363 9.56017 1.48148 9.78944 1.48148 9.99986C1.48148 10.2103 1.53363 10.4395 1.69488 10.7937C1.86289 11.1628 2.12089 11.609 2.50171 12.265L4.28237 15.3355C4.28235 15.3355 4.2824 15.3356 4.28237 15.3355C4.66126 15.9885 4.91971 16.4321 5.15584 16.76C5.38249 17.0748 5.55536 17.2342 5.73812 17.3394C5.92066 17.4445 6.14554 17.514 6.53251 17.552C6.93557 17.5916 7.44999 17.5925 8.20648 17.5925H11.7935C12.55 17.5925 13.0644 17.5916 13.4675 17.552C13.8545 17.514 14.0793 17.4445 14.2619 17.3394C14.4446 17.2342 14.6175 17.0748 14.8442 16.76C15.0803 16.4321 15.3387 15.9887 15.7175 15.3357C15.7175 15.3357 15.7176 15.3356 15.7175 15.3357L17.4981 12.2653C17.8789 11.6094 18.1371 11.1628 18.3051 10.7937C18.4664 10.4395 18.5185 10.2103 18.5185 9.99986C18.5185 9.78917 18.4664 9.55978 18.3054 9.20581C18.1376 8.83701 17.8796 8.39076 17.4985 7.73508L15.7176 4.66419C15.3387 4.0111 15.0803 3.5676 14.8442 3.23967C14.6175 2.92495 14.4446 2.76554 14.2619 2.66032C14.0793 2.55522 13.8545 2.48572 13.4675 2.44769C13.0644 2.40809 12.55 2.40726 11.7935 2.40726H8.20648C7.44999 2.40726 6.93557 2.40809 6.53251 2.44769ZM8.17053 0.925782H11.8295C12.541 0.925768 13.1284 0.925757 13.6124 0.973314C14.1205 1.02325 14.5725 1.12968 15.0011 1.37643C15.4294 1.62306 15.7482 1.95995 16.0464 2.37393C16.3307 2.76884 16.6257 3.2772 16.9831 3.8932L16.999 3.92071L18.7793 6.99056L18.7889 7.00709C19.1516 7.63098 19.4503 8.14489 19.6539 8.59228C19.866 9.05846 20 9.50407 20 9.99986C20 10.4959 19.8656 10.9417 19.6534 11.4076C19.4511 11.8521 19.1547 12.3626 18.7955 12.9812L16.9831 16.1065C16.6257 16.7225 16.3307 17.2309 16.0464 17.6258C15.7482 18.0398 15.4294 18.3767 15.0011 18.6233C14.5725 18.87 14.1205 18.9765 13.6124 19.0264C13.1284 19.074 12.5411 19.0739 11.8295 19.0739H8.17047C7.45893 19.0739 6.87157 19.074 6.38763 19.0264C5.87946 18.9765 5.42749 18.87 4.99892 18.6233C4.57056 18.3767 4.25177 18.0398 3.95365 17.6258C3.66924 17.2309 3.37429 16.7225 3.01687 16.1064L3.00096 16.079L1.20447 12.9812C0.845287 12.3625 0.54892 11.8521 0.346555 11.4076C0.13443 10.9417 0 10.4959 0 9.99986C0 9.50379 0.13443 9.05806 0.346555 8.59212C0.548921 8.14762 0.845289 7.63717 1.20447 7.01852L3.01688 3.89327C3.37429 3.27724 3.66924 2.76886 3.95365 2.37393C4.25177 1.95995 4.57056 1.62306 4.99892 1.37643C5.42749 1.12968 5.87946 1.02325 6.38763 0.973314C6.87158 0.925757 7.45895 0.925768 8.17053 0.925782Z" fill="#1B242C"/>
</svg>
