<svg width="23" height="22" viewBox="0 0 23 22" fill="none" xmlns="http://www.w3.org/2000/svg">
<path d="M21.8969 13.9892H1.36426C1.26794 13.9892 1.17557 13.9509 1.10747 13.8828C1.03937 13.8147 1.00111 13.7224 1.00111 13.626V6.81815C0.999812 6.76965 1.00825 6.72138 1.02592 6.6762C1.04359 6.63102 1.07013 6.58983 1.10398 6.55508C1.13784 6.52032 1.17831 6.49271 1.22301 6.47385C1.26771 6.455 1.31574 6.4453 1.36426 6.44531H21.8969C21.9932 6.44531 22.0855 6.48357 22.1536 6.55168C22.2217 6.61978 22.26 6.71215 22.26 6.80846V13.626C22.26 13.7224 22.2217 13.8147 22.1536 13.8828C22.0855 13.9509 21.9932 13.9892 21.8969 13.9892ZM1.72499 13.2629H21.5337V7.17162H1.72499V13.2629Z" fill="#1B242C" stroke="#1B242C" stroke-width="0.6"/>
<path d="M3.52819 21.0003C3.43188 21.0003 3.33951 20.9621 3.2714 20.894C3.2033 20.8259 3.16504 20.7335 3.16504 20.6372V13.6477C3.16504 13.5514 3.2033 13.459 3.2714 13.3909C3.33951 13.3228 3.43188 13.2846 3.52819 13.2846C3.6245 13.2846 3.71687 13.3228 3.78498 13.3909C3.85308 13.459 3.89134 13.5514 3.89134 13.6477V20.6372C3.89134 20.7335 3.85308 20.8259 3.78498 20.894C3.71687 20.9621 3.6245 21.0003 3.52819 21.0003ZM19.7296 21.0003C19.6333 21.0003 19.5409 20.9621 19.4728 20.894C19.4047 20.8259 19.3664 20.7335 19.3664 20.6372V13.6477C19.3664 13.5514 19.4047 13.459 19.4728 13.3909C19.5409 13.3228 19.6333 13.2846 19.7296 13.2846C19.8259 13.2846 19.9183 13.3228 19.9864 13.3909C20.0545 13.459 20.0928 13.5514 20.0928 13.6477V20.6372C20.0928 20.7335 20.0545 20.8259 19.9864 20.894C19.9183 20.9621 19.8259 21.0003 19.7296 21.0003ZM3.52819 7.15213C3.43188 7.15213 3.33951 7.11387 3.2714 7.04576C3.2033 6.97766 3.16504 6.88529 3.16504 6.78897V4.7069C3.16504 4.61059 3.2033 4.51822 3.2714 4.45011C3.33951 4.38201 3.43188 4.34375 3.52819 4.34375C3.6245 4.34375 3.71687 4.38201 3.78498 4.45011C3.85308 4.51822 3.89134 4.61059 3.89134 4.7069V6.78897C3.89134 6.88529 3.85308 6.97766 3.78498 7.04576C3.71687 7.11387 3.6245 7.15213 3.52819 7.15213ZM19.7296 7.15213C19.6333 7.15213 19.5409 7.11387 19.4728 7.04576C19.4047 6.97766 19.3664 6.88529 19.3664 6.78897V4.7069C19.3664 4.61059 19.4047 4.51822 19.4728 4.45011C19.5409 4.38201 19.6333 4.34375 19.7296 4.34375C19.8259 4.34375 19.9183 4.38201 19.9864 4.45011C20.0545 4.51822 20.0928 4.61059 20.0928 4.7069V6.78897C20.0928 6.88529 20.0545 6.97766 19.9864 7.04576C19.9183 7.11387 19.8259 7.15213 19.7296 7.15213Z" fill="#1B242C" stroke="#1B242C" stroke-width="0.6"/>
<path d="M3.43381 4.96562C3.04165 4.96562 2.65829 4.84933 2.33222 4.63146C2.00615 4.41358 1.75201 4.10391 1.60193 3.7416C1.45186 3.37929 1.41259 2.98061 1.4891 2.59598C1.56561 2.21136 1.75445 1.85805 2.03175 1.58075C2.30905 1.30345 2.66236 1.11461 3.04698 1.0381C3.43161 0.961593 3.83029 1.00086 4.1926 1.15093C4.55491 1.30101 4.86458 1.55515 5.08245 1.88122C5.30033 2.20729 5.41662 2.59065 5.41662 2.98281C5.41534 3.50829 5.20603 4.01189 4.83445 4.38346C4.46288 4.75503 3.95929 4.96434 3.43381 4.96562ZM3.43381 1.73357C3.1853 1.73357 2.94236 1.80726 2.73573 1.94533C2.5291 2.08339 2.36805 2.27963 2.27295 2.50923C2.17785 2.73883 2.15296 2.99147 2.20145 3.23521C2.24993 3.47895 2.3696 3.70283 2.54533 3.87856C2.72105 4.05428 2.94494 4.17396 3.18868 4.22244C3.43242 4.27092 3.68506 4.24604 3.91465 4.15094C4.14425 4.05583 4.34049 3.89478 4.47855 3.68815C4.61662 3.48152 4.69031 3.23859 4.69031 2.99007C4.68967 2.65702 4.55709 2.3378 4.32159 2.1023C4.08608 1.8668 3.76686 1.73421 3.43381 1.73357ZM19.7296 4.96562C19.3375 4.96562 18.9541 4.84933 18.628 4.63146C18.302 4.41358 18.0478 4.10391 17.8978 3.7416C17.7477 3.37929 17.7084 2.98061 17.7849 2.59598C17.8614 2.21136 18.0503 1.85805 18.3276 1.58075C18.6049 1.30345 18.9582 1.11461 19.3428 1.0381C19.7274 0.961593 20.1261 1.00086 20.4884 1.15093C20.8507 1.30101 21.1604 1.55515 21.3783 1.88122C21.5962 2.20729 21.7124 2.59065 21.7124 2.98281C21.7112 3.50829 21.5019 4.01189 21.1303 4.38346C20.7587 4.75503 20.2551 4.96434 19.7296 4.96562ZM19.7296 1.73357C19.4811 1.73357 19.2382 1.80726 19.0316 1.94533C18.8249 2.08339 18.6639 2.27963 18.5688 2.50923C18.4737 2.73883 18.4488 2.99147 18.4973 3.23521C18.5458 3.47895 18.6654 3.70283 18.8412 3.87856C19.0169 4.05428 19.2408 4.17396 19.4845 4.22244C19.7282 4.27092 19.9809 4.24604 20.2105 4.15094C20.4401 4.05583 20.6363 3.89478 20.7744 3.68815C20.9124 3.48152 20.9861 3.23859 20.9861 2.99007C20.9855 2.65702 20.8529 2.3378 20.6174 2.1023C20.3819 1.8668 20.0627 1.73421 19.7296 1.73357ZM1.36384 13.9887C1.31607 13.9894 1.26867 13.9803 1.22454 13.962C1.18042 13.9436 1.14049 13.9165 1.10722 13.8822C1.07325 13.8487 1.04629 13.8087 1.02788 13.7647C1.00948 13.7206 1 13.6733 1 13.6256C1 13.5778 1.00948 13.5306 1.02788 13.4865C1.04629 13.4425 1.07325 13.4025 1.10722 13.369L7.76016 6.71602C7.82854 6.64795 7.92116 6.60985 8.01764 6.61007C8.11412 6.6103 8.20656 6.64884 8.27462 6.71723C8.34268 6.78561 8.38079 6.87823 8.38056 6.97471C8.38034 7.07119 8.34179 7.16363 8.27341 7.23169L1.62047 13.8822C1.58694 13.9162 1.54697 13.9431 1.5029 13.9614C1.45884 13.9797 1.41156 13.989 1.36384 13.9887ZM7.765 13.9887C7.71726 13.9891 7.66995 13.9799 7.62586 13.9616C7.58177 13.9433 7.54182 13.9163 7.50837 13.8822C7.47441 13.8487 7.44744 13.8087 7.42904 13.7647C7.41063 13.7206 7.40115 13.6733 7.40115 13.6256C7.40115 13.5778 7.41063 13.5306 7.42904 13.4865C7.44744 13.4425 7.47441 13.4025 7.50837 13.369L14.1589 6.71844C14.1926 6.68426 14.2327 6.65705 14.2769 6.63837C14.3211 6.6197 14.3686 6.60991 14.4166 6.60957C14.4646 6.60923 14.5122 6.61835 14.5566 6.63641C14.6011 6.65447 14.6416 6.68111 14.6758 6.71481C14.71 6.74851 14.7372 6.78861 14.7558 6.83282C14.7745 6.87704 14.7843 6.9245 14.7846 6.9725C14.785 7.02049 14.7759 7.06809 14.7578 7.11256C14.7397 7.15703 14.7131 7.19751 14.6794 7.23169L8.02163 13.8822C7.98818 13.9163 7.94822 13.9433 7.90414 13.9616C7.86005 13.9799 7.81273 13.9891 7.765 13.9887ZM14.6794 13.9887C14.6316 13.9894 14.5842 13.9803 14.5401 13.962C14.496 13.9436 14.4561 13.9165 14.4228 13.8822C14.3888 13.8487 14.3618 13.8087 14.3434 13.7647C14.325 13.7206 14.3156 13.6733 14.3156 13.6256C14.3156 13.5778 14.325 13.5306 14.3434 13.4865C14.3618 13.4425 14.3888 13.4025 14.4228 13.369L21.0636 6.71602C21.132 6.64795 21.2246 6.60985 21.3211 6.61007C21.4176 6.6103 21.51 6.64884 21.5781 6.71723C21.6461 6.78561 21.6842 6.87823 21.684 6.97471C21.6838 7.07119 21.6452 7.16363 21.5769 7.23169L14.9215 13.8822C14.8575 13.9475 14.7708 13.9857 14.6794 13.9887Z" fill="#1B242C" stroke="#1B242C" stroke-width="0.6"/>
</svg>
