<svg width="20" height="20" viewBox="0 0 20 20" fill="none" xmlns="http://www.w3.org/2000/svg">
<path fill-rule="evenodd" clip-rule="evenodd" d="M9.4856 1.48148C8.99991 1.48148 8.53412 1.67442 8.19069 2.01785C7.84726 2.36128 7.65432 2.82707 7.65432 3.31276V10C7.65432 10.4091 7.32268 10.7407 6.91358 10.7407C6.50448 10.7407 6.17284 10.4091 6.17284 10V3.31276C6.17284 2.43416 6.52186 1.59155 7.14312 0.970284C7.76439 0.349022 8.607 0 9.4856 0C10.3642 0 11.2068 0.349022 11.8281 0.970284C12.4493 1.59155 12.7984 2.43416 12.7984 3.31276V3.82716C12.7984 4.23626 12.4667 4.5679 12.0576 4.5679C11.6485 4.5679 11.3169 4.23626 11.3169 3.82716V3.31276C11.3169 2.82707 11.1239 2.36128 10.7805 2.01785C10.4371 1.67442 9.97128 1.48148 9.4856 1.48148ZM9.25926 6.91358C9.25926 6.50448 9.5909 6.17284 10 6.17284H16.6872C17.5658 6.17284 18.4085 6.52186 19.0297 7.14312C19.651 7.76439 20 8.607 20 9.4856C20 10.3642 19.651 11.2068 19.0297 11.8281C18.4085 12.4493 17.5658 12.7984 16.6872 12.7984H16.1728C15.7637 12.7984 15.4321 12.4667 15.4321 12.0576C15.4321 11.6485 15.7637 11.3169 16.1728 11.3169H16.6872C17.1729 11.3169 17.6387 11.1239 17.9822 10.7805C18.3256 10.4371 18.5185 9.97128 18.5185 9.4856C18.5185 8.99991 18.3256 8.53412 17.9822 8.19069C17.6387 7.84726 17.1729 7.65432 16.6872 7.65432H10C9.5909 7.65432 9.25926 7.32268 9.25926 6.91358ZM3.31276 8.68313C2.82707 8.68313 2.36128 8.87607 2.01785 9.2195C1.67442 9.56293 1.48148 10.0287 1.48148 10.5144C1.48148 11.0001 1.67442 11.4659 2.01785 11.8093C2.36128 12.1527 2.82707 12.3457 3.31276 12.3457H10C10.4091 12.3457 10.7407 12.6773 10.7407 13.0864C10.7407 13.4955 10.4091 13.8272 10 13.8272H3.31276C2.43416 13.8272 1.59155 13.4781 0.970284 12.8569C0.349022 12.2356 0 11.393 0 10.5144C0 9.63581 0.349022 8.79319 0.970284 8.17193C1.59155 7.55067 2.43416 7.20165 3.31276 7.20165H3.82716C4.23626 7.20165 4.5679 7.53329 4.5679 7.94239C4.5679 8.35149 4.23626 8.68313 3.82716 8.68313H3.31276ZM13.0864 9.25926C13.4955 9.25926 13.8272 9.5909 13.8272 10V16.6872C13.8272 17.5658 13.4781 18.4085 12.8569 19.0297C12.2356 19.651 11.393 20 10.5144 20C9.63581 20 8.79319 19.651 8.17193 19.0297C7.55067 18.4085 7.20165 17.5658 7.20165 16.6872V16.1728C7.20165 15.7637 7.53329 15.4321 7.94239 15.4321C8.35149 15.4321 8.68313 15.7637 8.68313 16.1728V16.6872C8.68313 17.1729 8.87607 17.6387 9.2195 17.9822C9.56293 18.3256 10.0287 18.5185 10.5144 18.5185C11.0001 18.5185 11.4659 18.3256 11.8093 17.9822C12.1527 17.6387 12.3457 17.1729 12.3457 16.6872V10C12.3457 9.5909 12.6773 9.25926 13.0864 9.25926Z" fill="#4A545E"/>
</svg>
