<svg width="15" height="16" viewBox="0 0 15 16" fill="none" xmlns="http://www.w3.org/2000/svg">
<path d="M7.5 9.59696L1.91065 15.1863C1.70152 15.3954 1.43536 15.5 1.11217 15.5C0.788973 15.5 0.522813 15.3954 0.313688 15.1863C0.104562 14.9772 0 14.711 0 14.3878C0 14.0646 0.104562 13.7985 0.313688 13.5894L5.90304 8L0.313688 2.41065C0.104562 2.20152 0 1.93536 0 1.61217C0 1.28897 0.104562 1.02281 0.313688 0.813688C0.522813 0.604562 0.788973 0.5 1.11217 0.5C1.43536 0.5 1.70152 0.604562 1.91065 0.813688L7.5 6.40304L13.0894 0.813688C13.2985 0.604562 13.5646 0.5 13.8878 0.5C14.211 0.5 14.4772 0.604562 14.6863 0.813688C14.8954 1.02281 15 1.28897 15 1.61217C15 1.93536 14.8954 2.20152 14.6863 2.41065L9.09696 8L14.6863 13.5894C14.8954 13.7985 15 14.0646 15 14.3878C15 14.711 14.8954 14.9772 14.6863 15.1863C14.4772 15.3954 14.211 15.5 13.8878 15.5C13.5646 15.5 13.2985 15.3954 13.0894 15.1863L7.5 9.59696Z" fill="#1B242C"/>
</svg>
