<svg width="20" height="20" viewBox="0 0 20 20" fill="none" xmlns="http://www.w3.org/2000/svg">
<g clip-path="url(#clip0_1244_10610)">
<path fill-rule="evenodd" clip-rule="evenodd" d="M19.4125 1.91255C19.5781 1.73483 19.6683 1.49978 19.664 1.2569C19.6597 1.01402 19.5613 0.782291 19.3895 0.610525C19.2178 0.438759 18.986 0.340369 18.7432 0.336084C18.5003 0.331798 18.2652 0.421952 18.0875 0.587552L16.475 2.20005C15.454 1.48897 14.2153 1.15979 12.9759 1.27018C11.7366 1.38056 10.5756 1.92347 9.69626 2.8038L8.97126 3.5288C8.74761 3.75366 8.62206 4.05791 8.62206 4.37505C8.62206 4.6922 8.74761 4.99645 8.97126 5.2213L14.7788 11.0288C15.0036 11.2525 15.3079 11.378 15.625 11.378C15.9422 11.378 16.2464 11.2525 16.4713 11.0288L17.1963 10.3038C18.0768 9.42465 18.6199 8.26372 18.7305 7.02436C18.8412 5.78501 18.5122 4.54624 17.8013 3.52505L19.4125 1.91255ZM8.78751 8.08755C8.96308 8.26333 9.06169 8.50161 9.06169 8.75005C9.06169 8.99849 8.96308 9.23677 8.78751 9.41255L7.22501 10.9751L9.02501 12.7751L10.5875 11.2126C10.7652 11.047 11.0003 10.9568 11.2432 10.9611C11.486 10.9654 11.7178 11.0638 11.8895 11.2355C12.0613 11.4073 12.1597 11.639 12.164 11.8819C12.1683 12.1248 12.0781 12.3598 11.9125 12.5376L10.35 14.1001L11.0288 14.7788C11.2524 15.0037 11.378 15.3079 11.378 15.6251C11.378 15.9422 11.2524 16.2464 11.0288 16.4713L10.3038 17.1963C9.42461 18.0768 8.26368 18.62 7.02432 18.7306C5.78497 18.8412 4.5462 18.5122 3.52501 17.8013L1.91251 19.4138C1.73562 19.5845 1.49876 19.6789 1.25295 19.6766C1.00714 19.6744 0.772049 19.5757 0.598311 19.4018C0.424572 19.2279 0.326087 18.9927 0.324067 18.7469C0.322048 18.5011 0.416656 18.2643 0.587514 18.0876L2.20001 16.4751C1.48893 15.454 1.15976 14.2153 1.27014 12.976C1.38052 11.7366 1.92343 10.5756 2.80376 9.6963L3.52876 8.9713C3.75362 8.74765 4.05787 8.6221 4.37501 8.6221C4.69216 8.6221 4.99641 8.74765 5.22126 8.9713L5.90001 9.65005L7.46251 8.08755C7.6383 7.91199 7.87658 7.81338 8.12501 7.81338C8.37345 7.81338 8.61173 7.91199 8.78751 8.08755ZM4.37501 10.7751L4.12876 11.0213C3.4962 11.6664 3.14384 12.5352 3.14829 13.4387C3.15273 14.3422 3.51362 15.2074 4.1525 15.8463C4.79139 16.4852 5.65662 16.8461 6.56013 16.8505C7.46363 16.855 8.33238 16.5026 8.97751 15.8701L9.22376 15.6238L4.37501 10.7751ZM15.8713 8.9763L15.625 9.22255L10.7763 4.37505L11.0225 4.1288C11.6677 3.49624 12.5364 3.14388 13.4399 3.14833C14.3434 3.15277 15.2086 3.51366 15.8475 4.15254C16.4864 4.79142 16.8473 5.65666 16.8517 6.56016C16.8562 7.46367 16.5038 8.33116 15.8713 8.9763Z" fill="#4A545E"/>
</g>
<defs>
<clipPath id="clip0_1244_10610">
<rect width="20" height="20" fill="white"/>
</clipPath>
</defs>
</svg>
