<svg width="18" height="18" viewBox="0 0 18 18" fill="none" xmlns="http://www.w3.org/2000/svg">
<path d="M16.8989 8.74712L17.9956 8.712C17.9903 8.54418 17.9466 8.3798 17.8678 8.23153C17.789 8.08326 17.6773 7.95504 17.5411 7.85674C17.405 7.75844 17.2481 7.69268 17.0826 7.66453C16.9171 7.63638 16.7473 7.64658 16.5863 7.69434L16.8989 8.74712ZM9.25375 1.10196L10.3057 1.41366C10.3534 1.25263 10.3636 1.08277 10.3354 0.917174C10.3072 0.75158 10.2414 0.594668 10.143 0.458525C10.0446 0.322382 9.91626 0.210641 9.76788 0.131907C9.61949 0.0531743 9.45502 0.00955051 9.28712 0.00439614L9.25375 1.10196ZM16.5863 7.69434C16.1191 7.83219 15.6335 7.90227 15.1463 7.90244V10.0976C15.8452 10.0975 16.5404 9.997 17.2106 9.79903L16.5863 7.69434ZM15.1463 7.90244C13.8073 7.90244 12.5231 7.37052 11.5763 6.42369C10.6295 5.47686 10.0976 4.19268 10.0976 2.85366H7.90244C7.90244 4.77487 8.66563 6.61738 10.0241 7.97587C11.3826 9.33437 13.2251 10.0976 15.1463 10.0976V7.90244ZM10.0976 2.85366C10.0976 2.35142 10.1704 1.86849 10.3057 1.41366L8.20097 0.79025C8.00308 1.46019 7.90254 2.15511 7.90244 2.85366H10.0976ZM9 2.19513C9.07258 2.19513 9.14575 2.1963 9.21951 2.19864L9.288 0.00439614C9.19203 0.00135814 9.09601 -0.000105466 9 5.9067e-06V2.19513ZM2.19512 9C2.19512 7.19524 2.91206 5.46439 4.18822 4.18823C5.46438 2.91207 7.19523 2.19513 9 2.19513V5.9067e-06C4.03024 5.9067e-06 0 4.03025 0 9H2.19512ZM9 15.8049C7.19523 15.8049 5.46438 15.0879 4.18822 13.8118C2.91206 12.5356 2.19512 10.8048 2.19512 9H0C0 13.9698 4.03024 18 9 18V15.8049ZM15.8049 9C15.8049 10.8048 15.0879 12.5356 13.8118 13.8118C12.5356 15.0879 10.8048 15.8049 9 15.8049V18C13.9698 18 18 13.9698 18 9H15.8049ZM15.8014 8.78049C15.8037 8.85425 15.8049 8.92742 15.8049 9H18C18 8.90342 17.9985 8.80742 17.9956 8.712L15.8014 8.78049Z" fill="#555F6D"/>
</svg>
