<svg width="20" height="20" viewBox="0 0 20 20" fill="none" xmlns="http://www.w3.org/2000/svg">
<path fill-rule="evenodd" clip-rule="evenodd" d="M3.17489 1.26549C4.96364 0.470638 7.37745 0 10 0C12.6225 0 15.0364 0.470638 16.8251 1.26549C17.7185 1.66246 18.492 2.15633 19.0532 2.74607C19.6185 3.34003 20 4.06861 20 4.89796V15.102C20 15.9314 19.6185 16.66 19.0532 17.2539C18.492 17.8437 17.7185 18.3375 16.8251 18.7345C15.0364 19.5294 12.6225 20 10 20C7.37745 20 4.96364 19.5294 3.17489 18.7345C2.28154 18.3375 1.50801 17.8437 0.946766 17.2539C0.3815 16.66 0 15.9314 0 15.102V4.89796C0 4.06861 0.3815 3.34003 0.946766 2.74607C1.50801 2.15633 2.28154 1.66246 3.17489 1.26549ZM1.63265 7.65058V10C1.63265 10.2982 1.76518 10.6436 2.12945 11.0264C2.49773 11.4133 3.06923 11.7989 3.83787 12.1405C5.37309 12.8227 7.55112 13.2653 10 13.2653C12.4489 13.2653 14.6269 12.8227 16.1621 12.1405C16.9308 11.7989 17.5023 11.4133 17.8706 11.0264C18.2348 10.6436 18.3673 10.2982 18.3673 10V7.65058C17.9183 7.98328 17.3962 8.27666 16.8251 8.53043C15.0364 9.32528 12.6225 9.79592 10 9.79592C7.37745 9.79592 4.96364 9.32528 3.17489 8.53043C2.60379 8.27666 2.08166 7.98328 1.63265 7.65058ZM18.3673 4.89796C18.3673 5.19616 18.2348 5.54156 17.8706 5.92432C17.5023 6.3113 16.9308 6.6969 16.1621 7.03845C14.6269 7.72064 12.4489 8.16327 10 8.16327C7.55112 8.16327 5.37309 7.72064 3.83787 7.03845C3.06923 6.6969 2.49773 6.3113 2.12945 5.92432C1.76518 5.54156 1.63265 5.19616 1.63265 4.89796C1.63265 4.59976 1.76518 4.25436 2.12945 3.8716C2.49773 3.48462 3.06923 3.09903 3.83787 2.75747C5.37309 2.07528 7.55112 1.63265 10 1.63265C12.4489 1.63265 14.6269 2.07528 16.1621 2.75747C16.9308 3.09903 17.5023 3.48462 17.8706 3.8716C18.2348 4.25436 18.3673 4.59976 18.3673 4.89796ZM18.3673 12.7526C17.9183 13.0853 17.3962 13.3787 16.8251 13.6325C15.0364 14.4273 12.6225 14.898 10 14.898C7.37745 14.898 4.96364 14.4273 3.17489 13.6325C2.60379 13.3787 2.08166 13.0853 1.63265 12.7526V15.102C1.63265 15.4002 1.76518 15.7456 2.12945 16.1284C2.49773 16.5154 3.06923 16.901 3.83787 17.2425C5.37309 17.9247 7.55112 18.3673 10 18.3673C12.4489 18.3673 14.6269 17.9247 16.1621 17.2425C16.9308 16.901 17.5023 16.5154 17.8706 16.1284C18.2348 15.7456 18.3673 15.4002 18.3673 15.102V12.7526Z" fill="#2E4ACD"/>
</svg>
