<svg width="14" height="16" viewBox="0 0 14 16" fill="none" xmlns="http://www.w3.org/2000/svg">
<path d="M2.625 15.875C2.14375 15.875 1.73192 15.7038 1.3895 15.3614C1.04709 15.019 0.875586 14.6068 0.875003 14.125V2.75C0.627086 2.75 0.41942 2.666 0.252003 2.498C0.0845864 2.33 0.00058635 2.12233 3.01724e-06 1.875C-0.000580316 1.62767 0.0834197 1.42 0.252003 1.252C0.420586 1.084 0.628253 1 0.875003 1H4.375C4.375 0.752083 4.459 0.544417 4.627 0.377C4.795 0.209583 5.00267 0.125583 5.25 0.125H8.75C8.99792 0.125 9.20587 0.209 9.37387 0.377C9.54187 0.545 9.62558 0.752666 9.625 1H13.125C13.3729 1 13.5809 1.084 13.7489 1.252C13.9169 1.42 14.0006 1.62767 14 1.875C13.9994 2.12233 13.9154 2.33029 13.748 2.49887C13.5806 2.66746 13.3729 2.75117 13.125 2.75V14.125C13.125 14.6062 12.9538 15.0184 12.6114 15.3614C12.269 15.7044 11.8568 15.8756 11.375 15.875H2.625ZM11.375 2.75H2.625V14.125H11.375V2.75ZM5.25 12.375C5.49792 12.375 5.70588 12.291 5.87388 12.123C6.04188 11.955 6.12558 11.7473 6.125 11.5V5.375C6.125 5.12708 6.041 4.91941 5.873 4.752C5.705 4.58458 5.49733 4.50058 5.25 4.5C5.00267 4.49941 4.795 4.58341 4.627 4.752C4.459 4.92058 4.375 5.12825 4.375 5.375V11.5C4.375 11.7479 4.459 11.9559 4.627 12.1239C4.795 12.2919 5.00267 12.3756 5.25 12.375ZM8.75 12.375C8.99792 12.375 9.20587 12.291 9.37387 12.123C9.54187 11.955 9.62558 11.7473 9.625 11.5V5.375C9.625 5.12708 9.541 4.91941 9.373 4.752C9.205 4.58458 8.99733 4.50058 8.75 4.5C8.50267 4.49941 8.295 4.58341 8.127 4.752C7.959 4.92058 7.875 5.12825 7.875 5.375V11.5C7.875 11.7479 7.959 11.9559 8.127 12.1239C8.295 12.2919 8.50267 12.3756 8.75 12.375Z" fill="#C53434"/>
</svg>
