<svg width="16" height="22" viewBox="0 0 16 22" fill="none" xmlns="http://www.w3.org/2000/svg">
<path fill-rule="evenodd" clip-rule="evenodd" d="M0 2.6C0 2.04305 0.210714 1.5089 0.585786 1.11508C0.960859 0.721249 1.46957 0.5 2 0.5H14C14.5304 0.5 15.0391 0.721249 15.4142 1.11508C15.7893 1.5089 16 2.04305 16 2.6V19.4C16 19.957 15.7893 20.4911 15.4142 20.8849C15.0391 21.2787 14.5304 21.5 14 21.5H2C1.46957 21.5 0.960859 21.2787 0.585786 20.8849C0.210714 20.4911 0 19.957 0 19.4V2.6ZM14 2.6H2V19.4H14V2.6ZM4 7.85C4 7.57152 4.10536 7.30445 4.29289 7.10754C4.48043 6.91062 4.73478 6.8 5 6.8H11C11.2652 6.8 11.5196 6.91062 11.7071 7.10754C11.8946 7.30445 12 7.57152 12 7.85C12 8.12848 11.8946 8.39555 11.7071 8.59246C11.5196 8.78937 11.2652 8.9 11 8.9H5C4.73478 8.9 4.48043 8.78937 4.29289 8.59246C4.10536 8.39555 4 8.12848 4 7.85ZM5 12.05C4.73478 12.05 4.48043 12.1606 4.29289 12.3575C4.10536 12.5545 4 12.8215 4 13.1C4 13.3785 4.10536 13.6455 4.29289 13.8425C4.48043 14.0394 4.73478 14.15 5 14.15H8C8.26522 14.15 8.51957 14.0394 8.70711 13.8425C8.89464 13.6455 9 13.3785 9 13.1C9 12.8215 8.89464 12.5545 8.70711 12.3575C8.51957 12.1606 8.26522 12.05 8 12.05H5Z" fill="#2E4ACD"/>
</svg>
