<svg width="22" height="18" viewBox="0 0 22 18" fill="none" xmlns="http://www.w3.org/2000/svg">
<path d="M1 9C1 5.229 1 3.343 2.172 2.172C3.344 1.001 5.229 1 9 1H13C16.771 1 18.657 1 19.828 2.172C20.999 3.344 21 5.229 21 9C21 12.771 21 14.657 19.828 15.828C18.656 16.999 16.771 17 13 17H9C5.229 17 3.343 17 2.172 15.828C1.001 14.656 1 12.771 1 9Z" stroke="#1B242C" stroke-width="1.5"/>
<path d="M11 7V11M9.268 8L12.732 10M12.732 8L9.268 10M5.733 7V11M4 8L7.464 10M7.464 8L4 10M16.268 7V11M14.536 8L18 10M18 8L14.535 10" stroke="#1B242C" stroke-width="1.5" stroke-linecap="round"/>
</svg>
