<svg width="22" height="18" viewBox="0 0 22 18" fill="none" xmlns="http://www.w3.org/2000/svg">
<path fill-rule="evenodd" clip-rule="evenodd" d="M7.85719 2.62912e-07H14.1428C15.2266 -9.73709e-06 16.1007 -1.96546e-05 16.8086 0.0578203C17.5375 0.11737 18.1777 0.24318 18.77 0.54497C19.7108 1.02433 20.4757 1.78924 20.955 2.73005C21.2568 3.32234 21.3826 3.96253 21.4422 4.69138C21.5 5.39925 21.5 6.27339 21.5 7.3572V10.6428C21.5 11.7266 21.5 12.6008 21.4422 13.3086C21.3826 14.0375 21.2568 14.6777 20.955 15.27C20.4757 16.2108 19.7108 16.9757 18.77 17.455C18.1777 17.7568 17.5375 17.8826 16.8086 17.9422C16.1008 18 15.2266 18 14.1428 18H7.85717C6.77339 18 5.89925 18 5.19138 17.9422C4.46253 17.8826 3.82234 17.7568 3.23005 17.455C2.28924 16.9757 1.52433 16.2108 1.04497 15.27C0.74318 14.6777 0.61737 14.0375 0.55782 13.3086C0.49998 12.6007 0.49999 11.7266 0.5 10.6428V7.3572C0.49999 6.27341 0.49998 5.39926 0.55782 4.69138C0.61737 3.96253 0.74318 3.32234 1.04497 2.73005C1.52433 1.78924 2.28924 1.02433 3.23005 0.54497C3.82234 0.24318 4.46253 0.11737 5.19138 0.0578203C5.89926 -1.96546e-05 6.77341 -9.73709e-06 7.85719 2.62912e-07ZM5.35424 2.05118C4.74907 2.10062 4.40138 2.19279 4.13803 2.32698C3.57354 2.6146 3.1146 3.07354 2.82698 3.63803C2.69279 3.90138 2.60062 4.24907 2.55118 4.85424C2.50078 5.47108 2.5 6.26339 2.5 7.4V10.6C2.5 11.7366 2.50078 12.5289 2.55118 13.1458C2.60062 13.7509 2.69279 14.0986 2.82698 14.362C3.1146 14.9265 3.57354 15.3854 4.13803 15.673C4.40138 15.8072 4.74907 15.8994 5.35424 15.9488C5.97108 15.9992 6.76339 16 7.9 16H8.5V2H7.9C6.76339 2 5.97108 2.00078 5.35424 2.05118ZM10.5 2V16H14.1C15.2366 16 16.0289 15.9992 16.6458 15.9488C17.2509 15.8994 17.5986 15.8072 17.862 15.673C18.4265 15.3854 18.8854 14.9265 19.173 14.362C19.3072 14.0986 19.3994 13.7509 19.4488 13.1458C19.4992 12.5289 19.5 11.7366 19.5 10.6V7.4C19.5 6.26339 19.4992 5.47108 19.4488 4.85424C19.3994 4.24907 19.3072 3.90138 19.173 3.63803C18.8854 3.07354 18.4265 2.6146 17.862 2.32698C17.5986 2.19279 17.2509 2.10062 16.6458 2.05118C16.0289 2.00078 15.2366 2 14.1 2H10.5ZM4 5.5C4 4.94772 4.44772 4.5 5 4.5H6C6.55229 4.5 7 4.94772 7 5.5C7 6.05229 6.55229 6.5 6 6.5H5C4.44772 6.5 4 6.05229 4 5.5ZM4 9C4 8.4477 4.44772 8 5 8H6C6.55229 8 7 8.4477 7 9C7 9.5523 6.55229 10 6 10H5C4.44772 10 4 9.5523 4 9Z" fill="#555F6D"/>
</svg>
