<svg width="18" height="18" viewBox="0 0 18 18" fill="none" xmlns="http://www.w3.org/2000/svg">
<g clip-path="url(#clip0_1358_2482)">
<mask id="mask0_1358_2482" style="mask-type:luminance" maskUnits="userSpaceOnUse" x="0" y="0" width="18" height="18">
<path d="M3.43125 3.43125L4.26675 4.26675M1.125 9H2.30625M3.43125 14.5687L4.26675 13.7333M14.5687 14.5687L13.7333 13.7333M16.875 9H15.6937M14.5687 3.43125L13.7333 4.26675M9 1.125V2.30625" stroke="white" stroke-width="2" stroke-linecap="round" stroke-linejoin="round"/>
<path d="M9 13.5C11.4851 13.5 13.5 11.4851 13.5 9C13.5 6.51487 11.4851 4.5 9 4.5C6.51487 4.5 4.5 6.51487 4.5 9C4.5 11.4851 6.51487 13.5 9 13.5Z" fill="black" stroke="white" stroke-width="2" stroke-linejoin="round"/>
<path d="M9 16.8751V15.6938" stroke="white" stroke-width="2" stroke-linecap="round" stroke-linejoin="round"/>
</mask>
<g mask="url(#mask0_1358_2482)">
<path d="M0 0H18V18H0V0Z" fill="#1B242C"/>
</g>
</g>
<defs>
<clipPath id="clip0_1358_2482">
<rect width="18" height="18" fill="white"/>
</clipPath>
</defs>
</svg>
