<svg width="20" height="20" viewBox="0 0 20 20" fill="none" xmlns="http://www.w3.org/2000/svg">
<path d="M9.16602 14.167H10.8327V9.16699H9.16602V14.167ZM9.99935 7.50033C10.2355 7.50033 10.4335 7.42032 10.5935 7.26032C10.7535 7.10033 10.8332 6.90255 10.8327 6.66699C10.8321 6.43144 10.7521 6.23366 10.5927 6.07366C10.4332 5.91366 10.2355 5.83366 9.99935 5.83366C9.76324 5.83366 9.56546 5.91366 9.40602 6.07366C9.24657 6.23366 9.16657 6.43144 9.16602 6.66699C9.16546 6.90255 9.24546 7.1006 9.40602 7.26116C9.56657 7.42171 9.76435 7.50144 9.99935 7.50033ZM9.99935 18.3337C8.84657 18.3337 7.76324 18.1148 6.74935 17.677C5.73546 17.2392 4.85352 16.6456 4.10352 15.8962C3.35352 15.1467 2.75991 14.2648 2.32268 13.2503C1.88546 12.2359 1.66657 11.1525 1.66602 10.0003C1.66546 8.8481 1.88435 7.76477 2.32268 6.75033C2.76102 5.73588 3.35463 4.85394 4.10352 4.10449C4.85241 3.35505 5.73435 2.76144 6.74935 2.32366C7.76435 1.88588 8.84768 1.66699 9.99935 1.66699C11.151 1.66699 12.2343 1.88588 13.2493 2.32366C14.2643 2.76144 15.1463 3.35505 15.8952 4.10449C16.6441 4.85394 17.238 5.73588 17.6768 6.75033C18.1157 7.76477 18.3344 8.8481 18.3327 10.0003C18.331 11.1525 18.1121 12.2359 17.676 13.2503C17.2399 14.2648 16.6463 15.1467 15.8952 15.8962C15.1441 16.6456 14.2621 17.2395 13.2493 17.6778C12.2366 18.1162 11.1532 18.3348 9.99935 18.3337ZM9.99935 16.667C11.8605 16.667 13.4368 16.0212 14.7285 14.7295C16.0202 13.4378 16.666 11.8614 16.666 10.0003C16.666 8.13921 16.0202 6.56282 14.7285 5.27116C13.4368 3.97949 11.8605 3.33366 9.99935 3.33366C8.13824 3.33366 6.56185 3.97949 5.27018 5.27116C3.97852 6.56282 3.33268 8.13921 3.33268 10.0003C3.33268 11.8614 3.97852 13.4378 5.27018 14.7295C6.56185 16.0212 8.13824 16.667 9.99935 16.667Z" fill="#555F6D"/>
</svg>
