<svg width="110" height="48" viewBox="0 0 110 48" fill="none" xmlns="http://www.w3.org/2000/svg">
<rect width="48" height="48" rx="10" fill="#0F00AB"/>
<mask id="mask0_1244_10625" style="mask-type:alpha" maskUnits="userSpaceOnUse" x="0" y="0" width="48" height="48">
<rect width="48" height="48" rx="10" fill="#0D0A2C"/>
</mask>
<g mask="url(#mask0_1244_10625)">
<g filter="url(#filter0_f_1244_10625)">
<ellipse cx="40.744" cy="-6.01835" rx="13.7194" ry="31.6757" transform="rotate(28.3027 40.744 -6.01835)" fill="#E0F0FF"/>
</g>
<g filter="url(#filter1_f_1244_10625)">
<ellipse cx="57.4296" cy="24.4278" rx="27.9385" ry="27.8959" transform="rotate(65.6373 57.4296 24.4278)" fill="#0819B5"/>
</g>
<g filter="url(#filter2_f_1244_10625)">
<ellipse cx="14.5147" cy="-4.98343" rx="34.5959" ry="14.4536" transform="rotate(65.6373 14.5147 -4.98343)" fill="#0795FB"/>
</g>
<rect x="0.3" y="0.3" width="47.4" height="47.4" rx="9.7" stroke="url(#paint0_linear_1244_10625)" stroke-width="0.6"/>
</g>
<path d="M67.1392 15.5455L71.358 28.8068H71.5199L75.7472 15.5455H79.8381L73.821 33H69.0653L63.0398 15.5455H67.1392ZM86.3089 33.2557C84.9851 33.2557 83.8402 32.9744 82.8743 32.4119C81.9141 31.8437 81.1726 31.054 80.6499 30.0426C80.1271 29.0256 79.8658 27.8466 79.8658 26.5057C79.8658 25.1534 80.1271 23.9716 80.6499 22.9602C81.1726 21.9432 81.9141 21.1534 82.8743 20.5909C83.8402 20.0227 84.9851 19.7386 86.3089 19.7386C87.6328 19.7386 88.7749 20.0227 89.7351 20.5909C90.701 21.1534 91.4453 21.9432 91.968 22.9602C92.4908 23.9716 92.7521 25.1534 92.7521 26.5057C92.7521 27.8466 92.4908 29.0256 91.968 30.0426C91.4453 31.054 90.701 31.8437 89.7351 32.4119C88.7749 32.9744 87.6328 33.2557 86.3089 33.2557ZM86.326 30.4432C86.9283 30.4432 87.4311 30.2727 87.8345 29.9318C88.2379 29.5852 88.5419 29.1136 88.7464 28.517C88.9567 27.9205 89.0618 27.2415 89.0618 26.4801C89.0618 25.7188 88.9567 25.0398 88.7464 24.4432C88.5419 23.8466 88.2379 23.375 87.8345 23.0284C87.4311 22.6818 86.9283 22.5085 86.326 22.5085C85.718 22.5085 85.2067 22.6818 84.7919 23.0284C84.3828 23.375 84.0732 23.8466 83.8629 24.4432C83.6584 25.0398 83.5561 25.7188 83.5561 26.4801C83.5561 27.2415 83.6584 27.9205 83.8629 28.517C84.0732 29.1136 84.3828 29.5852 84.7919 29.9318C85.2067 30.2727 85.718 30.4432 86.326 30.4432ZM98.7436 15.5455V33H95.1129V15.5455H98.7436ZM108.615 19.9091V22.6364H100.732V19.9091H108.615ZM102.521 16.7727H106.152V28.9773C106.152 29.3125 106.203 29.5739 106.305 29.7614C106.408 29.9432 106.55 30.071 106.732 30.1449C106.919 30.2187 107.135 30.2557 107.379 30.2557C107.55 30.2557 107.72 30.2415 107.891 30.2131C108.061 30.179 108.192 30.1534 108.283 30.1364L108.854 32.8381C108.672 32.8949 108.416 32.9602 108.087 33.0341C107.757 33.1136 107.357 33.1619 106.885 33.179C106.01 33.2131 105.243 33.0966 104.584 32.8295C103.93 32.5625 103.422 32.1477 103.058 31.5852C102.695 31.0227 102.516 30.3125 102.521 29.4545V16.7727Z" fill="#1B242C"/>
<path d="M36.1422 11H28.7194L26.8459 15.5114L30.0535 15.5708L18.5857 34.2546L23.3687 20.0377L18.8128 19.7409L22.0913 11H14.853C14.3704 11 13.973 11.4304 14.0014 11.9349L15.1369 36.1541C15.1652 36.629 15.5343 37 15.9884 37H24.4757C24.8022 37 25.086 36.8071 25.2421 36.5103L36.9086 12.2911C37.1925 11.6975 36.7809 11 36.1422 11Z" fill="url(#paint1_linear_1244_10625)"/>
<defs>
<filter id="filter0_f_1244_10625" x="-8.53" y="-64.6624" width="98.548" height="117.288" filterUnits="userSpaceOnUse" color-interpolation-filters="sRGB">
<feFlood flood-opacity="0" result="BackgroundImageFix"/>
<feBlend mode="normal" in="SourceGraphic" in2="BackgroundImageFix" result="shape"/>
<feGaussianBlur stdDeviation="15" result="effect1_foregroundBlur_1244_10625"/>
</filter>
<filter id="filter1_f_1244_10625" x="-0.480316" y="-33.5105" width="115.82" height="115.876" filterUnits="userSpaceOnUse" color-interpolation-filters="sRGB">
<feFlood flood-opacity="0" result="BackgroundImageFix"/>
<feBlend mode="normal" in="SourceGraphic" in2="BackgroundImageFix" result="shape"/>
<feGaussianBlur stdDeviation="15" result="effect1_foregroundBlur_1244_10625"/>
</filter>
<filter id="filter2_f_1244_10625" x="-34.9025" y="-67.0635" width="98.8345" height="124.16" filterUnits="userSpaceOnUse" color-interpolation-filters="sRGB">
<feFlood flood-opacity="0" result="BackgroundImageFix"/>
<feBlend mode="normal" in="SourceGraphic" in2="BackgroundImageFix" result="shape"/>
<feGaussianBlur stdDeviation="15" result="effect1_foregroundBlur_1244_10625"/>
</filter>
<linearGradient id="paint0_linear_1244_10625" x1="24" y1="0" x2="24" y2="48" gradientUnits="userSpaceOnUse">
<stop stop-color="white" stop-opacity="0.1"/>
<stop offset="1" stop-color="white" stop-opacity="0.6"/>
</linearGradient>
<linearGradient id="paint1_linear_1244_10625" x1="25.5" y1="11" x2="25.5" y2="37" gradientUnits="userSpaceOnUse">
<stop stop-color="white" stop-opacity="0.9"/>
<stop offset="1" stop-color="white"/>
</linearGradient>
</defs>
</svg>
