<svg width="49" height="48" viewBox="0 0 49 48" fill="none" xmlns="http://www.w3.org/2000/svg">
<circle cx="36" cy="12.5" r="12.5" fill="url(#paint0_linear_1244_10776)"/>
<path fill-rule="evenodd" clip-rule="evenodd" d="M13.5798 8.67249C16.4418 7.40073 20.3039 6.64771 24.5 6.64771C28.6961 6.64771 32.5582 7.40073 35.4202 8.67249C36.8495 9.30763 38.0872 10.0978 38.9852 11.0414C39.8896 11.9918 40.5 13.1575 40.5 14.4844V30.811C40.5 32.1379 39.8896 33.3037 38.9852 34.254C38.0872 35.1976 36.8495 35.9878 35.4202 36.6229C32.5582 37.8947 28.6961 38.6477 24.5 38.6477C20.3039 38.6477 16.4418 37.8947 13.5798 36.6229C12.1505 35.9878 10.9128 35.1976 10.0148 34.254C9.1104 33.3037 8.5 32.1379 8.5 30.811V14.4844C8.5 13.1575 9.1104 11.9918 10.0148 11.0414C10.9128 10.0978 12.1505 9.30763 13.5798 8.67249ZM11.1122 18.8886V22.6477C11.1122 23.1248 11.3243 23.6775 11.9071 24.2899C12.4964 24.9091 13.4108 25.526 14.6406 26.0725C17.0969 27.164 20.5818 27.8722 24.5 27.8722C28.4182 27.8722 31.9031 27.164 34.3594 26.0725C35.5892 25.526 36.5036 24.9091 37.0929 24.2899C37.6757 23.6775 37.8878 23.1248 37.8878 22.6477V18.8886C37.1693 19.421 36.3339 19.8904 35.4202 20.2964C32.5582 21.5682 28.6961 22.3212 24.5 22.3212C20.3039 22.3212 16.4418 21.5682 13.5798 20.2964C12.6661 19.8904 11.8307 19.421 11.1122 18.8886ZM37.8878 14.4844C37.8878 14.9616 37.6757 15.5142 37.0929 16.1266C36.5036 16.7458 35.5892 17.3627 34.3594 17.9092C31.9031 19.0007 28.4182 19.7089 24.5 19.7089C20.5818 19.7089 17.0969 19.0007 14.6406 17.9092C13.4108 17.3627 12.4964 16.7458 11.9071 16.1266C11.3243 15.5142 11.1122 14.9616 11.1122 14.4844C11.1122 14.0073 11.3243 13.4547 11.9071 12.8423C12.4964 12.2231 13.4108 11.6061 14.6406 11.0597C17.0969 9.96815 20.5818 9.25995 24.5 9.25995C28.4182 9.25995 31.9031 9.96815 34.3594 11.0597C35.5892 11.6061 36.5036 12.2231 37.0929 12.8423C37.6757 13.4547 37.8878 14.0073 37.8878 14.4844ZM37.8878 27.0519C37.1693 27.5842 36.3339 28.0536 35.4202 28.4597C32.5582 29.7314 28.6961 30.4844 24.5 30.4844C20.3039 30.4844 16.4418 29.7314 13.5798 28.4597C12.6661 28.0536 11.8307 27.5842 11.1122 27.0519V30.811C11.1122 31.2881 11.3243 31.8407 11.9071 32.4531C12.4964 33.0723 13.4108 33.6893 14.6406 34.2358C17.0969 35.3273 20.5818 36.0355 24.5 36.0355C28.4182 36.0355 31.9031 35.3273 34.3594 34.2358C35.5892 33.6893 36.5036 33.0723 37.0929 32.4531C37.6757 31.8407 37.8878 31.2881 37.8878 30.811V27.0519Z" fill="#1B242C"/>
<defs>
<linearGradient id="paint0_linear_1244_10776" x1="45.5" y1="3" x2="27" y2="21.5" gradientUnits="userSpaceOnUse">
<stop stop-color="#2E4ACD" stop-opacity="0.7"/>
<stop offset="1" stop-color="#2E4ACD" stop-opacity="0"/>
</linearGradient>
</defs>
</svg>
