<svg width="18" height="18" viewBox="0 0 18 18" fill="none" xmlns="http://www.w3.org/2000/svg">
<path d="M13.9052 6.74971L6.66016 2.59471C6.26812 2.36833 5.82316 2.24974 5.37046 2.25099C4.91775 2.25223 4.47344 2.37326 4.08266 2.60179C3.69187 2.83032 3.36853 3.15821 3.14547 3.55215C2.92241 3.94608 2.80759 4.39204 2.81266 4.84471V13.1847C2.81266 13.865 3.0829 14.5174 3.56393 14.9984C4.04496 15.4795 4.69738 15.7497 5.37766 15.7497C5.82799 15.749 6.27023 15.63 6.66016 15.4047L13.9052 11.2497C14.2945 11.0244 14.6177 10.7007 14.8423 10.311C15.067 9.92139 15.1853 9.47951 15.1853 9.02971C15.1853 8.57992 15.067 8.13804 14.8423 7.74839C14.6177 7.35874 14.2945 7.03502 13.9052 6.80971V6.74971ZM13.1552 9.89221L5.91016 14.1072C5.74778 14.1992 5.56431 14.2476 5.37766 14.2476C5.19101 14.2476 5.00755 14.1992 4.84516 14.1072C4.68323 14.0137 4.54877 13.8793 4.4553 13.7173C4.36182 13.5554 4.31263 13.3717 4.31266 13.1847V4.81471C4.31263 4.62774 4.36182 4.44405 4.4553 4.28211C4.54877 4.12018 4.68323 3.9857 4.84516 3.89221C5.0081 3.80129 5.19109 3.75232 5.37766 3.74971C5.56406 3.75354 5.74676 3.80243 5.91016 3.89221L13.1552 8.07722C13.3171 8.17066 13.4517 8.30512 13.5452 8.46706C13.6387 8.62899 13.688 8.81271 13.688 8.99971C13.688 9.18672 13.6387 9.37044 13.5452 9.53237C13.4517 9.69431 13.3171 9.82877 13.1552 9.92221V9.89221Z" fill="white"/>
</svg>
