<svg width="22" height="20" viewBox="0 0 22 20" fill="none" xmlns="http://www.w3.org/2000/svg">
<path fill-rule="evenodd" clip-rule="evenodd" d="M6.19717 2.07325C6.39431 1.95975 6.63718 1.88469 7.05511 1.84362C7.49041 1.80084 8.04599 1.79995 8.863 1.79995H12.737C13.554 1.79995 14.1096 1.80084 14.5449 1.84362C14.9628 1.88469 15.2057 1.95975 15.4028 2.07325C15.6002 2.18689 15.7869 2.35906 16.0317 2.69896C16.2867 3.05312 16.5658 3.53209 16.975 4.23743L18.8984 7.554C19.31 8.26213 19.5886 8.74407 19.7698 9.14238C19.9438 9.52466 20 9.77241 20 9.99995C20 10.2272 19.9437 10.4748 19.7695 10.8574C19.5881 11.2559 19.3092 11.7382 18.8979 12.4466L16.9749 15.7626C16.5658 16.4679 16.2867 16.9468 16.0317 17.3009C15.7869 17.6409 15.6002 17.813 15.4028 17.9267C15.2057 18.0402 14.9628 18.1152 14.5449 18.1563C14.1096 18.1991 13.554 18.2 12.737 18.2H8.863C8.04599 18.2 7.49041 18.1991 7.05511 18.1563C6.63718 18.1152 6.39431 18.0402 6.19717 17.9267C5.99979 17.813 5.81309 17.6409 5.56831 17.3009C5.31328 16.9468 5.03416 16.4677 4.62496 15.7625L2.70185 12.4463C2.29056 11.7379 2.01192 11.2559 1.83047 10.8574C1.65632 10.4748 1.6 10.2272 1.6 9.99995C1.6 9.77271 1.65632 9.52509 1.83047 9.14255C2.01192 8.74399 2.29076 8.2617 2.70205 7.55328L4.62505 4.23728C5.03424 3.53203 5.31328 3.05309 5.56831 2.69896C5.81309 2.35906 5.99979 2.18689 6.19717 2.07325ZM12.7758 0.199952H8.82417H8.82415C8.05566 0.199938 7.42131 0.199926 6.89864 0.251287C6.34982 0.305219 5.86169 0.420158 5.39883 0.686655C4.93621 0.953012 4.59192 1.31685 4.26994 1.76395C3.96278 2.19047 3.64423 2.73953 3.25823 3.40484L1.30083 6.78011L1.30083 6.78012C0.91291 7.44825 0.592834 7.99954 0.374279 8.4796C0.145184 8.98281 0 9.4642 0 9.99995C0 10.5357 0.145184 11.0171 0.374279 11.5203C0.592834 12.0004 0.91291 12.5517 1.30083 13.2198L3.24104 16.5654L3.25822 16.5951C3.64423 17.2604 3.96278 17.8094 4.26994 18.236C4.59191 18.6831 4.93621 19.0469 5.39883 19.3133C5.86169 19.5797 6.34982 19.6947 6.89864 19.7486C7.4213 19.8 8.05564 19.8 8.82411 19.8H12.7759C13.5444 19.8 14.1787 19.8 14.7014 19.7486C15.2502 19.6947 15.7383 19.5797 16.2012 19.3133C16.6638 19.0469 17.0081 18.6831 17.3301 18.236C17.6372 17.8095 17.9557 17.2604 18.3417 16.5951L20.2992 13.2198C20.6871 12.5517 21.0072 12.0004 21.2257 11.5203C21.4548 11.0171 21.6 10.5357 21.6 9.99995C21.6 9.4645 21.4552 8.98324 21.2262 8.47977C21.0063 7.9966 20.6837 7.44159 20.292 6.7678L20.292 6.76777L20.2816 6.74991L18.359 3.43447L18.3417 3.40476L18.3417 3.40475C17.9557 2.73947 17.6372 2.19045 17.3301 1.76395C17.0081 1.31685 16.6638 0.953012 16.2012 0.686655C15.7383 0.420158 15.2502 0.305219 14.7014 0.251287C14.1787 0.199926 13.5443 0.199938 12.7759 0.199952H12.7758ZM8.89081 8.09076C9.39716 7.58442 10.0839 7.29995 10.8 7.29995C11.5161 7.29995 12.2028 7.58442 12.7092 8.09076C13.2155 8.59711 13.5 9.28387 13.5 9.99995C13.5 10.3545 13.4302 10.7056 13.2945 11.0332C13.1588 11.3608 12.9599 11.6584 12.7092 11.9091C12.4585 12.1599 12.1608 12.3587 11.8332 12.4944C11.5057 12.6301 11.1546 12.7 10.8 12.7C10.4454 12.7 10.0943 12.6301 9.76676 12.4944C9.43918 12.3587 9.14153 12.1599 8.89081 11.9091C8.64009 11.6584 8.44121 11.3608 8.30552 11.0332C8.16984 10.7056 8.1 10.3545 8.1 9.99995C8.1 9.28387 8.38446 8.59711 8.89081 8.09076ZM10.8 5.69995C9.65957 5.69995 8.56585 6.15299 7.75944 6.95939C6.95303 7.7658 6.5 8.85952 6.5 9.99995C6.5 10.5646 6.61122 11.1238 6.82732 11.6455C7.04341 12.1672 7.36015 12.6412 7.75944 13.0405C8.15873 13.4398 8.63276 13.7565 9.15446 13.9726C9.67616 14.1887 10.2353 14.3 10.8 14.3C11.3647 14.3 11.9238 14.1887 12.4455 13.9726C12.9672 13.7565 13.4413 13.4398 13.8406 13.0405C14.2399 12.6412 14.5566 12.1672 14.7727 11.6455C14.9888 11.1238 15.1 10.5646 15.1 9.99995C15.1 8.85952 14.647 7.7658 13.8406 6.95939C13.0342 6.15299 11.9404 5.69995 10.8 5.69995Z" fill="#4A545E"/>
</svg>
