<svg width="16" height="4" viewBox="0 0 16 4" fill="none" xmlns="http://www.w3.org/2000/svg">
<path fill-rule="evenodd" clip-rule="evenodd" d="M3.83333 1.99992C3.83333 2.44195 3.65774 2.86587 3.34518 3.17843C3.03262 3.49099 2.60869 3.66658 2.16667 3.66658C1.72464 3.66658 1.30072 3.49099 0.988155 3.17843C0.675595 2.86587 0.5 2.44195 0.5 1.99992C0.5 1.55789 0.675595 1.13397 0.988155 0.821408C1.30072 0.508847 1.72464 0.333252 2.16667 0.333252C2.60869 0.333252 3.03262 0.508847 3.34518 0.821408C3.65774 1.13397 3.83333 1.55789 3.83333 1.99992ZM8 0.333252C8.44203 0.333252 8.86595 0.508847 9.17851 0.821408C9.49107 1.13397 9.66667 1.55789 9.66667 1.99992C9.66667 2.44195 9.49107 2.86587 9.17851 3.17843C8.86595 3.49099 8.44203 3.66658 8 3.66658C7.55797 3.66658 7.13405 3.49099 6.82149 3.17843C6.50893 2.86587 6.33333 2.44195 6.33333 1.99992C6.33333 1.55789 6.50893 1.13397 6.82149 0.821408C7.13405 0.508847 7.55797 0.333252 8 0.333252ZM13.8333 0.333252C14.2754 0.333252 14.6993 0.508847 15.0118 0.821408C15.3244 1.13397 15.5 1.55789 15.5 1.99992C15.5 2.44195 15.3244 2.86587 15.0118 3.17843C14.6993 3.49099 14.2754 3.66658 13.8333 3.66658C13.3913 3.66658 12.9674 3.49099 12.6548 3.17843C12.3423 2.86587 12.1667 2.44195 12.1667 1.99992C12.1667 1.55789 12.3423 1.13397 12.6548 0.821408C12.9674 0.508847 13.3913 0.333252 13.8333 0.333252Z" fill="#1B242C"/>
</svg>
