<svg width="18" height="18" viewBox="0 0 18 18" fill="none" xmlns="http://www.w3.org/2000/svg">
<path d="M9.00037 17.9999C13.9711 17.9999 18.0007 13.9705 18.0007 8.99995C18.0007 4.02941 13.9711 0 9.00037 0C4.0296 0 0 4.02941 0 8.99995C0 13.9705 4.0296 17.9999 9.00037 17.9999Z" fill="url(#paint0_linear_1841_6700)"/>
<path opacity="0.4" d="M8.70697 0.429317C13.6778 0.429317 17.7074 4.45873 17.7074 9.42922C17.7074 11.2115 17.1826 12.8683 16.2888 14.2662C17.3614 12.7846 18.001 10.9689 18.001 8.99995C18.001 4.02942 13.9714 0 9.0007 0C5.81233 0 3.01785 1.66243 1.41895 4.16298C3.05409 1.90435 5.70528 0.429317 8.70697 0.429317Z" fill="#F4FFB8"/>
<path opacity="0.4" d="M9.13358 17.6454C4.16281 17.6454 0.133245 13.616 0.133245 8.64547C0.133245 7.52596 0.347054 6.45876 0.72059 5.46997C0.257571 6.55428 0 7.7472 0 9.00075C0 13.9713 4.02961 18.0007 9.00037 18.0007C12.8515 18.0007 16.1284 15.5774 17.4134 12.1762C16.0404 15.3914 12.8508 17.6454 9.13358 17.6454Z" fill="url(#paint1_linear_1841_6700)"/>
<path opacity="0.1" d="M9.36626 16.7273C4.39546 16.7273 0.365855 12.6979 0.365855 7.72733C0.365855 7.56181 0.124963 7.51677 0.10007 7.68041C0.0345925 8.11085 0 8.55137 0 9.00041C0 13.9709 4.02961 18.0004 9.00037 18.0004C9.45133 18.0004 9.89453 17.9672 10.3277 17.9031C11.3311 17.7548 10.3806 16.7273 9.36626 16.7273Z" fill="url(#paint2_linear_1841_6700)"/>
<path opacity="0.4" d="M9.00008 1.99365C5.13244 1.99365 1.99707 5.12887 1.99707 8.99633C1.99707 12.8638 5.1324 15.999 9.00008 15.999C12.8678 15.999 16.0031 12.8638 16.0031 8.99633C16.0031 5.12887 12.8677 1.99365 9.00008 1.99365ZM9.00008 15.4092C5.45817 15.4092 2.58693 12.5381 2.58693 8.99633C2.58693 5.45463 5.45817 2.58353 9.00008 2.58353C12.542 2.58353 15.4132 5.45463 15.4132 8.99633C15.4132 12.5381 12.542 15.4092 9.00008 15.4092Z" fill="url(#paint3_linear_1841_6700)"/>
<path opacity="0.4" d="M8.91506 2.22365C12.7827 2.22365 15.9181 5.35887 15.9181 9.22633C15.9181 10.1221 15.7436 10.9754 15.4371 11.7627C15.8007 10.9158 16.0035 9.98353 16.0035 9.00341C16.0035 5.13599 12.8682 2.00073 9.0005 2.00073C6.02858 2.00073 3.49536 3.85496 2.47852 6.46711C3.54968 3.97204 6.02758 2.22365 8.91506 2.22365Z" fill="url(#paint4_linear_1841_6700)"/>
<path opacity="0.4" d="M2.50195 9.22665C2.50195 12.7684 5.37319 15.6395 8.9151 15.6395C11.6427 15.6395 13.9665 13.9338 14.8936 11.5334C13.912 13.8168 11.6437 15.4166 9.00054 15.4166C5.45863 15.4166 2.5874 12.5455 2.5874 9.00377C2.5874 8.18949 2.74524 7.41366 3.02205 6.69702C2.68832 7.47338 2.50195 8.32801 2.50195 9.22665Z" fill="url(#paint5_linear_1841_6700)"/>
<path opacity="0.4" d="M2.50391 9.19313C2.56199 12.6847 5.40603 15.4984 8.91161 15.4984C10.59 15.4984 12.1156 14.8518 13.2582 13.7963C12.1259 14.8035 10.6356 15.4166 9.00073 15.4166C5.45883 15.4166 2.58759 12.5455 2.58759 9.00377C2.58759 8.18949 2.74544 7.41366 3.02225 6.69702C2.69271 7.46362 2.50851 8.30693 2.50391 9.19313Z" fill="url(#paint6_linear_1841_6700)"/>
<path opacity="0.4" d="M14.428 12.4151C14.1125 12.9832 13.7148 13.4989 13.249 13.9445C13.9672 13.2827 14.5359 12.4607 14.8942 11.533C14.762 11.8406 14.6046 12.1346 14.428 12.4151Z" fill="url(#paint7_linear_1841_6700)"/>
<path opacity="0.4" d="M9.0401 2.03029C12.9077 2.03029 16.0431 5.16551 16.0431 9.03297C16.0431 9.92873 15.8686 10.782 15.5621 11.5694C15.9257 10.7224 16.1286 9.79017 16.1286 8.81005C16.1286 4.94259 12.9932 1.80737 9.12554 1.80737C6.15358 1.80737 3.6204 3.6616 2.60352 6.27375C3.67472 3.77864 6.15258 2.03029 9.0401 2.03029Z" fill="#F4FFB8"/>
<g opacity="0.6">
<path opacity="0.4" d="M15.4138 8.99996C15.4138 5.45826 12.5426 2.58716 9.00067 2.58716C6.32452 2.58716 4.03347 4.22739 3.07227 6.55633C4.07443 4.32123 6.31444 2.76172 8.92263 2.76172C12.4645 2.76172 15.3358 5.63282 15.3358 9.17456C15.3358 10.0403 15.162 10.8648 14.851 11.6182C15.2098 10.818 15.4138 9.93359 15.4138 8.99996Z" fill="url(#paint8_linear_1841_6700)"/>
</g>
<path opacity="0.5" d="M9.00004 16.0031C5.1324 16.0031 1.99703 12.8679 1.99703 9.00037C1.99703 8.05326 2.18732 7.15114 2.52809 6.32715C2.13959 7.19786 1.91895 8.1599 1.91895 9.17497C1.91895 13.0424 5.05427 16.1777 8.92195 16.1777C11.8425 16.1777 14.3431 14.3889 15.3939 11.8482C14.3021 14.295 11.8526 16.0031 9.00004 16.0031Z" fill="url(#paint9_linear_1841_6700)"/>
<path opacity="0.2" d="M12.4924 7.068L8.4998 4.86613C8.42131 4.82289 8.32571 4.82473 8.24903 4.87105L4.34574 7.22764C4.26906 7.27396 4.22286 7.35768 4.22466 7.44728L4.31398 12.0057C4.31574 12.0953 4.36519 12.1772 4.44367 12.2204L8.43627 14.4223C8.51472 14.4656 8.61032 14.4637 8.687 14.4174L12.5903 12.0608C12.667 12.0145 12.7132 11.9308 12.7114 11.8412L12.622 7.28272C12.6203 7.19312 12.5709 7.11128 12.4924 7.068Z" fill="url(#paint10_linear_1841_6700)"/>
<path opacity="0.2" d="M12.8176 6.68351L8.82499 4.48165C8.74651 4.43837 8.6509 4.44021 8.57422 4.48653L4.67094 6.84315C4.59426 6.88947 4.54806 6.97319 4.54986 7.06275L4.63918 11.6212C4.64094 11.7108 4.69038 11.7926 4.76878 11.836L8.76139 14.0378C8.83987 14.0811 8.93548 14.0792 9.01216 14.0329L12.9154 11.6763C12.9921 11.63 13.0383 11.5462 13.0365 11.4567L12.9472 6.89819C12.9454 6.80863 12.896 6.72675 12.8176 6.68351Z" fill="url(#paint11_linear_1841_6700)"/>
<path d="M13.0246 6.42396L9.03202 4.22209C8.95354 4.17885 8.85797 4.18069 8.78125 4.22701L4.87801 6.58364C4.80129 6.62996 4.75512 6.71364 4.75688 6.80324L4.84625 11.3617C4.84797 11.4513 4.89741 11.5331 4.97585 11.5764L8.96846 13.7783C9.04694 13.8216 9.14251 13.8197 9.21923 13.7734L13.1225 11.4168C13.1992 11.3704 13.2454 11.2867 13.2436 11.1972L13.1542 6.63868C13.1525 6.54908 13.1031 6.46724 13.0246 6.42396Z" fill="url(#paint12_linear_1841_6700)"/>
<path opacity="0.2" d="M13.1543 6.63868C13.1525 6.54908 13.1031 6.46728 13.0246 6.42396L9.03202 4.22209C8.95354 4.17886 8.85797 4.1807 8.78129 4.22698L4.87801 6.5836C4.80129 6.62996 4.75512 6.71364 4.75688 6.80324C4.75744 6.83092 4.78775 6.84764 4.81145 6.83332L8.43772 4.64393C8.5144 4.59761 8.60996 4.59577 8.68845 4.63905L12.6811 6.84092C12.7595 6.88416 12.8089 6.96604 12.8107 7.05564L12.8937 11.2906C12.896 11.4067 13.0231 11.4768 13.1225 11.4168C13.1992 11.3705 13.2454 11.2867 13.2436 11.1972L13.1543 6.63868Z" fill="#FDFF8B"/>
<path opacity="0.4" d="M9.33767 13.6179C9.26095 13.6642 9.16539 13.666 9.0869 13.6228L5.0943 11.4209C5.01582 11.3776 4.96641 11.2958 4.96465 11.2062L4.87533 6.6477C4.8749 6.62777 4.88148 6.60963 4.88783 6.59135C4.88992 6.58532 4.88348 6.58024 4.87801 6.58354C4.80129 6.6299 4.75512 6.71358 4.75688 6.80318L4.84625 11.3616C4.84797 11.4512 4.89741 11.533 4.97585 11.5763L8.96842 13.7782C9.0469 13.8215 9.14251 13.8196 9.21919 13.7733L13.1225 11.4167C13.1779 11.3832 13.1243 11.3317 13.0688 11.3652L9.33767 13.6179Z" fill="url(#paint13_linear_1841_6700)"/>
<path opacity="0.2" d="M9.72993 12.9963C9.65325 13.0426 9.55764 13.0445 9.47916 13.0012L5.48655 10.7993C5.40811 10.7561 5.35871 10.6742 5.35695 10.5846L5.28289 6.80699C5.27886 6.60153 5.05393 6.47748 4.87801 6.58369C4.80129 6.63004 4.75512 6.71372 4.75688 6.80332L4.84625 11.3618C4.84797 11.4514 4.89741 11.5332 4.97585 11.5765L8.96842 13.7784C9.0469 13.8216 9.14251 13.8198 9.21919 13.7734L13.1225 11.4169C13.1992 11.3705 13.2454 11.2868 13.2436 11.1973C13.2408 11.0557 13.0858 10.9702 12.9646 11.0434L9.72993 12.9963Z" fill="url(#paint14_linear_1841_6700)"/>
<g opacity="0.2">
<path d="M17.1949 9.39625C17.6957 8.96265 17.9883 8.2977 17.8905 7.6425C17.668 6.15347 15.8747 5.90721 14.8447 7.00531L6.43401 15.9723C5.87263 16.5708 6.06487 17.5402 6.86214 17.7344C7.21263 17.8197 7.58496 17.7157 7.85769 17.4796L17.1949 9.39625Z" fill="#FDFF8B"/>
<path d="M10.8439 0.192387C9.77452 -0.0309434 8.75271 0.593888 8.21581 1.54527L1.9605 12.6295C1.58186 13.3004 1.58409 14.1392 2.07552 14.7325C2.79353 15.5994 4.09039 15.4525 4.82206 14.5971L13.3384 4.64096C14.3762 3.42769 14.2938 1.55512 12.8521 0.869185C12.2199 0.568384 11.5471 0.339245 10.8439 0.192387Z" fill="#FDFF8B"/>
</g>
<defs>
<linearGradient id="paint0_linear_1841_6700" x1="-3.45102" y1="15.7649" x2="20.2336" y2="2.89561" gradientUnits="userSpaceOnUse">
<stop stop-color="#FF9D00"/>
<stop offset="0.2824" stop-color="#FF8800"/>
<stop offset="1" stop-color="#FFCC00"/>
</linearGradient>
<linearGradient id="paint1_linear_1841_6700" x1="7.60831" y1="10.7971" x2="5.23986" y2="12.7067" gradientUnits="userSpaceOnUse">
<stop stop-color="#FF9D00"/>
<stop offset="0.2824" stop-color="#FF8800"/>
<stop offset="1" stop-color="#FFCC00"/>
</linearGradient>
<linearGradient id="paint2_linear_1841_6700" x1="6.46423" y1="17.9984" x2="9.43945" y2="7.45886" gradientUnits="userSpaceOnUse">
<stop stop-color="#C40000"/>
<stop offset="1" stop-color="#FFB417"/>
</linearGradient>
<linearGradient id="paint3_linear_1841_6700" x1="12.4493" y1="5.69611" x2="2.3835" y2="15.3281" gradientUnits="userSpaceOnUse">
<stop stop-color="#C40000"/>
<stop offset="1" stop-color="#FF3A17"/>
</linearGradient>
<linearGradient id="paint4_linear_1841_6700" x1="16.8381" y1="2.15737" x2="1.97457" y2="14.1552" gradientUnits="userSpaceOnUse">
<stop stop-color="#C40000"/>
<stop offset="1" stop-color="#FFCC00"/>
</linearGradient>
<linearGradient id="paint5_linear_1841_6700" x1="14.0635" y1="5.54671" x2="0.431217" y2="16.5507" gradientUnits="userSpaceOnUse">
<stop stop-color="#C40000"/>
<stop offset="1" stop-color="#FFCC00"/>
</linearGradient>
<linearGradient id="paint6_linear_1841_6700" x1="11.2311" y1="7.7613" x2="1.54315" y2="15.5813" gradientUnits="userSpaceOnUse">
<stop stop-color="#C40000"/>
<stop offset="1" stop-color="#FFCC00"/>
</linearGradient>
<linearGradient id="paint7_linear_1841_6700" x1="15.8634" y1="11.2926" x2="11.9014" y2="14.4908" gradientUnits="userSpaceOnUse">
<stop stop-color="#C40000"/>
<stop offset="1" stop-color="#FFCC00"/>
</linearGradient>
<linearGradient id="paint8_linear_1841_6700" x1="12.4343" y1="5.3859" x2="5.9612" y2="11.5801" gradientUnits="userSpaceOnUse">
<stop stop-color="#C40000"/>
<stop offset="1" stop-color="#FFE16E"/>
</linearGradient>
<linearGradient id="paint9_linear_1841_6700" x1="11.9554" y1="4.83232" x2="6.27129" y2="13.1614" gradientUnits="userSpaceOnUse">
<stop stop-color="#C40000"/>
<stop offset="1" stop-color="#FFE16E"/>
</linearGradient>
<linearGradient id="paint10_linear_1841_6700" x1="7.70536" y1="10.5927" x2="-0.307627" y2="20.5601" gradientUnits="userSpaceOnUse">
<stop offset="0.5116" stop-color="#C40000"/>
<stop offset="1" stop-color="#FF3A17"/>
</linearGradient>
<linearGradient id="paint11_linear_1841_6700" x1="5.47649" y1="12.8534" x2="13.0356" y2="4.66229" gradientUnits="userSpaceOnUse">
<stop offset="0.5116" stop-color="#C40000"/>
<stop offset="1" stop-color="#FF3A17"/>
</linearGradient>
<linearGradient id="paint12_linear_1841_6700" x1="5.68356" y1="12.5938" x2="13.2427" y2="4.40273" gradientUnits="userSpaceOnUse">
<stop stop-color="#FF9D00"/>
<stop offset="0.2824" stop-color="#FF8800"/>
<stop offset="1" stop-color="#FFCC00"/>
</linearGradient>
<linearGradient id="paint13_linear_1841_6700" x1="10.338" y1="6.01618" x2="8.19167" y2="10.7901" gradientUnits="userSpaceOnUse">
<stop stop-color="#FF9D00"/>
<stop offset="0.2824" stop-color="#FF8800"/>
<stop offset="1" stop-color="#FFCC00"/>
</linearGradient>
<linearGradient id="paint14_linear_1841_6700" x1="5.74341" y1="12.5291" x2="10.7419" y2="7.11273" gradientUnits="userSpaceOnUse">
<stop stop-color="#FF9D00"/>
<stop offset="0.2824" stop-color="#FF8800"/>
<stop offset="1" stop-color="#FFCC00"/>
</linearGradient>
</defs>
</svg>
