<svg width="30" height="25" viewBox="0 0 30 25" fill="none" xmlns="http://www.w3.org/2000/svg">
<path d="M19.012 7.25697H19.9216L22.5139 4.66454L22.6412 3.56389C21.1562 2.25308 19.3615 1.34251 17.4267 0.918187C15.492 0.493866 13.481 0.569805 11.5837 1.13883C9.68641 1.70786 7.96551 2.75118 6.58354 4.17026C5.20158 5.58933 4.20417 7.3373 3.68555 9.24904C3.97434 9.13067 4.29425 9.11147 4.59513 9.19447L9.77975 8.33942C9.77975 8.33942 10.0435 7.9028 10.18 7.93009C11.2909 6.70998 12.8261 5.96066 14.4714 5.83552C16.1167 5.71039 17.7476 6.2189 19.0302 7.25697H19.012Z" fill="#EA4335"/>
<path d="M26.2062 9.24734C25.6104 7.053 24.387 5.0803 22.6862 3.57129L19.0478 7.20979C19.8061 7.82939 20.4138 8.6131 20.825 9.5018C21.2362 10.3905 21.4403 11.361 21.4218 12.3401V12.9859C21.8471 12.9859 22.2681 13.0697 22.661 13.2324C23.0539 13.3951 23.4108 13.6337 23.7115 13.9344C24.0122 14.2351 24.2507 14.592 24.4135 14.9849C24.5762 15.3778 24.6599 15.7989 24.6599 16.2242C24.6599 16.6494 24.5762 17.0705 24.4135 17.4634C24.2507 17.8563 24.0122 18.2133 23.7115 18.514C23.4108 18.8147 23.0539 19.0532 22.661 19.2159C22.2681 19.3787 21.8471 19.4624 21.4218 19.4624H14.9456L14.2998 20.1174V24.0014L14.9456 24.6473H21.4218C23.2303 24.6614 24.9953 24.0929 26.4557 23.0261C27.916 21.9593 28.9943 20.4507 29.5309 18.7236C30.0675 16.9964 30.0339 15.1424 29.4351 13.4358C28.8364 11.7292 27.7043 10.2606 26.2062 9.24734Z" fill="#4285F4"/>
<path d="M8.46152 24.6109H14.9377V19.4261H8.46152C8.00011 19.426 7.54412 19.3267 7.12443 19.135L6.21485 19.417L3.60435 22.0094L3.37695 22.919C4.84086 24.0245 6.62714 24.6189 8.46152 24.6109Z" fill="#34A853"/>
<path d="M8.46129 7.79009C6.70654 7.80058 4.99888 8.35888 3.57682 9.38703C2.15477 10.4152 1.08932 11.8618 0.529306 13.5249C-0.0307097 15.188 -0.0573323 16.9845 0.453157 18.6635C0.963646 20.3424 1.98575 21.82 3.37672 22.8899L7.1333 19.1331C6.65591 18.9174 6.23798 18.5891 5.91537 18.1764C5.59275 17.7637 5.37507 17.2788 5.28102 16.7635C5.18696 16.2481 5.21934 15.7176 5.37536 15.2175C5.53139 14.7175 5.80641 14.2627 6.17682 13.8923C6.54723 13.5218 7.00198 13.2468 7.50205 13.0908C8.00212 12.9347 8.53257 12.9024 9.0479 12.9964C9.56323 13.0905 10.0481 13.3082 10.4608 13.6308C10.8735 13.9534 11.2017 14.3714 11.4174 14.8488L15.174 11.092C14.3855 10.0612 13.3693 9.22675 12.2048 8.65394C11.0403 8.08112 9.75904 7.78547 8.46129 7.79009Z" fill="#FBBC05"/>
</svg>
