<svg width="20" height="20" viewBox="0 0 20 20" fill="none" xmlns="http://www.w3.org/2000/svg">
<path d="M2.72949 12.7463C2.02116 11.8263 1.66699 11.3655 1.66699 9.99967C1.66699 8.63301 2.02116 8.17384 2.72949 7.25301C4.14366 5.41634 6.51533 3.33301 10.0003 3.33301C13.4853 3.33301 15.857 5.41634 17.2712 7.25301C17.9795 8.17467 18.3337 8.63384 18.3337 9.99967C18.3337 11.3663 17.9795 11.8255 17.2712 12.7463C15.857 14.583 13.4853 16.6663 10.0003 16.6663C6.51533 16.6663 4.14366 14.583 2.72949 12.7463Z" stroke="#555F6D" stroke-width="1.5"/>
<path d="M12.5 10C12.5 10.663 12.2366 11.2989 11.7678 11.7678C11.2989 12.2366 10.663 12.5 10 12.5C9.33696 12.5 8.70107 12.2366 8.23223 11.7678C7.76339 11.2989 7.5 10.663 7.5 10C7.5 9.33696 7.76339 8.70107 8.23223 8.23223C8.70107 7.76339 9.33696 7.5 10 7.5C10.663 7.5 11.2989 7.76339 11.7678 8.23223C12.2366 8.70107 12.5 9.33696 12.5 10Z" stroke="#555F6D" stroke-width="1.5"/>
</svg>
