<svg xmlns="http://www.w3.org/2000/svg" width="48" height="48" viewBox="0 0 48 48" fill="none">
<rect width="48" height="48" rx="10" fill="#0F00AB"/>
<path d="M36.1422 11H28.7194L26.8459 15.5114L30.0535 15.5708L18.5857 34.2546L23.3687 20.0377L18.8128 19.7409L22.0913 11H14.853C14.3704 11 13.973 11.4304 14.0014 11.9349L15.1369 36.1541C15.1652 36.629 15.5343 37 15.9884 37H24.4757C24.8022 37 25.086 36.8071 25.2421 36.5103L36.9086 12.2911C37.1925 11.6975 36.7809 11 36.1422 11Z" fill="url(#paint1_linear_1244_10625)"/>
<defs>
<filter id="filter0_f_1244_10625" x="-8.53" y="-64.6624" width="98.548" height="117.288" filterUnits="userSpaceOnUse" color-interpolation-filters="sRGB">
<feFlood flood-opacity="0" result="BackgroundImageFix"/>
<feBlend mode="normal" in="SourceGraphic" in2="BackgroundImageFix" result="shape"/>
<feGaussianBlur stdDeviation="15" result="effect1_foregroundBlur_1244_10625"/>
</filter>
<filter id="filter1_f_1244_10625" x="-0.480316" y="-33.5105" width="115.82" height="115.876" filterUnits="userSpaceOnUse" color-interpolation-filters="sRGB">
<feFlood flood-opacity="0" result="BackgroundImageFix"/>
<feBlend mode="normal" in="SourceGraphic" in2="BackgroundImageFix" result="shape"/>
<feGaussianBlur stdDeviation="15" result="effect1_foregroundBlur_1244_10625"/>
</filter>
<filter id="filter2_f_1244_10625" x="-34.9025" y="-67.0635" width="98.8345" height="124.16" filterUnits="userSpaceOnUse" color-interpolation-filters="sRGB">
<feFlood flood-opacity="0" result="BackgroundImageFix"/>
<feBlend mode="normal" in="SourceGraphic" in2="BackgroundImageFix" result="shape"/>
<feGaussianBlur stdDeviation="15" result="effect1_foregroundBlur_1244_10625"/>
</filter>
<linearGradient id="paint0_linear_1244_10625" x1="24" y1="0" x2="24" y2="48" gradientUnits="userSpaceOnUse">
<stop stop-color="white" stop-opacity="0.1"/>
<stop offset="1" stop-color="white" stop-opacity="0.6"/>
</linearGradient>
<linearGradient id="paint1_linear_1244_10625" x1="25.5" y1="11" x2="25.5" y2="37" gradientUnits="userSpaceOnUse">
<stop stop-color="white" stop-opacity="0.9"/>
<stop offset="1" stop-color="white"/>
</linearGradient>
</defs>
</svg>