<svg width="24" height="24" viewBox="0 0 24 24" fill="none" xmlns="http://www.w3.org/2000/svg">
<path d="M0.778887 1.17194C0.551722 1.16901 0.334887 1.26668 0.186549 1.43875C0.0382112 1.61082 -0.0264456 1.83968 0.00992287 2.06394L3.27418 21.8801C3.35813 22.3807 3.78937 22.7487 4.2969 22.7529H19.9569C20.3378 22.7578 20.6649 22.4831 20.7258 22.107L23.9901 2.06778C24.0264 1.84353 23.9618 1.61467 23.8135 1.4426C23.6651 1.27053 23.4483 1.17285 23.2211 1.17578L0.778887 1.17194ZM14.5241 15.4939H9.52586L8.17248 8.42327H15.7352L14.5241 15.4939Z" fill="#2684FF"/>
<path d="M22.9323 8.41309H15.7213L14.5111 15.4781H9.51684L3.61975 22.4777C3.80666 22.6394 4.04497 22.7292 4.29206 22.7313H19.9434C20.324 22.7362 20.6508 22.4617 20.7117 22.0859L22.9323 8.41309Z" fill="url(#paint0_linear_1352_7968)"/>
<defs>
<linearGradient id="paint0_linear_1352_7968" x1="2101.6" y1="206.263" x2="1268.61" y2="1389" gradientUnits="userSpaceOnUse">
<stop offset="0.18" stop-color="#0052CC"/>
<stop offset="1" stop-color="#2684FF"/>
</linearGradient>
</defs>
</svg>
