<svg width="18" height="16" viewBox="0 0 18 16" fill="none" xmlns="http://www.w3.org/2000/svg">
<path d="M6.75 0.123536C6.05177 0.12317 5.37061 0.339373 4.8004 0.742349C4.23018 1.14532 3.79899 1.71523 3.56625 2.37354H0V4.62354H3.56625C3.79868 5.28226 4.22971 5.85267 4.79992 6.25615C5.37014 6.65962 6.05147 6.87629 6.75 6.87629C7.44853 6.87629 8.12986 6.65962 8.70008 6.25615C9.27029 5.85267 9.70132 5.28226 9.93375 4.62354H18V2.37354H9.93375C9.70101 1.71523 9.26982 1.14532 8.6996 0.742349C8.12939 0.339373 7.44823 0.12317 6.75 0.123536ZM5.625 3.49854C5.625 3.20017 5.74353 2.91402 5.9545 2.70304C6.16548 2.49206 6.45163 2.37354 6.75 2.37354C7.04837 2.37354 7.33452 2.49206 7.5455 2.70304C7.75647 2.91402 7.875 3.20017 7.875 3.49854C7.875 3.7969 7.75647 4.08305 7.5455 4.29403C7.33452 4.50501 7.04837 4.62354 6.75 4.62354C6.45163 4.62354 6.16548 4.50501 5.9545 4.29403C5.74353 4.08305 5.625 3.7969 5.625 3.49854ZM11.25 9.12354C10.5518 9.12317 9.87061 9.33937 9.3004 9.74235C8.73018 10.1453 8.29899 10.7152 8.06625 11.3735H0V13.6235H8.06625C8.29868 14.2823 8.72971 14.8527 9.29992 15.2561C9.87014 15.6596 10.5515 15.8763 11.25 15.8763C11.9485 15.8763 12.6299 15.6596 13.2001 15.2561C13.7703 14.8527 14.2013 14.2823 14.4338 13.6235H18V11.3735H14.4338C14.201 10.7152 13.7698 10.1453 13.1996 9.74235C12.6294 9.33937 11.9482 9.12317 11.25 9.12354ZM10.125 12.4985C10.125 12.2002 10.2435 11.914 10.4545 11.703C10.6655 11.4921 10.9516 11.3735 11.25 11.3735C11.5484 11.3735 11.8345 11.4921 12.0455 11.703C12.2565 11.914 12.375 12.2002 12.375 12.4985C12.375 12.7969 12.2565 13.0831 12.0455 13.294C11.8345 13.505 11.5484 13.6235 11.25 13.6235C10.9516 13.6235 10.6655 13.505 10.4545 13.294C10.2435 13.0831 10.125 12.7969 10.125 12.4985Z" fill="#1B242C"/>
</svg>
