<svg width="25" height="28" viewBox="0 0 25 28" fill="none" xmlns="http://www.w3.org/2000/svg">
<g clip-path="url(#clip0_1352_7942)">
<path d="M22.1344 2.06055H3.27724C1.8576 2.06055 0.705811 3.21233 0.705811 4.63198V23.4891C0.705811 24.9088 1.8576 26.0605 3.27724 26.0605H22.1344C23.554 26.0605 24.7058 24.9088 24.7058 23.4891V4.63198C24.7058 3.21233 23.554 2.06055 22.1344 2.06055ZM15.5612 22.6159C15.1112 22.6963 14.9451 22.4177 14.9451 22.1873C14.9451 21.898 14.9558 20.4195 14.9558 19.2248C14.9558 18.3891 14.6772 17.8588 14.3505 17.5802C16.3326 17.3605 18.4219 17.0873 18.4219 13.6641C18.4219 12.6891 18.0737 12.2016 17.5058 11.5748C17.5969 11.3445 17.9022 10.3963 17.4147 9.16412C16.6701 8.93376 14.9665 10.123 14.9665 10.123C14.2594 9.92483 13.4933 9.82305 12.738 9.82305C11.9826 9.82305 11.2165 9.92483 10.5094 10.123C10.5094 10.123 8.80581 8.93376 8.06117 9.16412C7.57367 10.3909 7.87367 11.3391 7.9701 11.5748C7.40224 12.2016 7.13438 12.6891 7.13438 13.6641C7.13438 17.0713 9.1326 17.3605 11.1147 17.5802C10.8576 17.8105 10.6272 18.207 10.5469 18.7748C10.038 19.0052 8.73617 19.4016 7.95938 18.0302C7.47188 17.1838 6.59331 17.1141 6.59331 17.1141C5.72545 17.1034 6.53438 17.6605 6.53438 17.6605C7.11295 17.9284 7.5201 18.957 7.5201 18.957C8.03974 20.548 10.5255 20.0123 10.5255 20.0123C10.5255 20.757 10.5362 21.9677 10.5362 22.1873C10.5362 22.4177 10.3755 22.6963 9.9201 22.6159C6.38438 21.432 3.90938 18.0677 3.90938 14.1355C3.90938 9.21769 7.6701 5.48376 12.588 5.48376C17.5058 5.48376 21.4915 9.21769 21.4915 14.1355C21.4969 18.0677 19.0969 21.4373 15.5612 22.6159ZM10.3058 19.3427C10.204 19.3641 10.1076 19.3213 10.0969 19.2516C10.0862 19.1713 10.1558 19.1016 10.2576 19.0802C10.3594 19.0695 10.4558 19.1123 10.4665 19.182C10.4826 19.2516 10.413 19.3213 10.3058 19.3427ZM9.79688 19.2945C9.79688 19.3641 9.71653 19.423 9.60938 19.423C9.49152 19.4338 9.41117 19.3748 9.41117 19.2945C9.41117 19.2248 9.49152 19.1659 9.59867 19.1659C9.70045 19.1552 9.79688 19.2141 9.79688 19.2945ZM9.06295 19.2355C9.04152 19.3052 8.93438 19.3373 8.84331 19.3052C8.74152 19.2838 8.67188 19.2034 8.69331 19.1338C8.71474 19.0641 8.82188 19.032 8.91295 19.0534C9.0201 19.0855 9.08974 19.1659 9.06295 19.2355ZM8.40402 18.9463C8.35581 19.0052 8.25402 18.9945 8.17367 18.9141C8.09331 18.8445 8.07188 18.7427 8.12545 18.6945C8.17367 18.6355 8.27545 18.6463 8.35581 18.7266C8.42545 18.7963 8.45224 18.9034 8.40402 18.9463ZM7.91653 18.4588C7.86831 18.4909 7.77724 18.4588 7.71831 18.3784C7.65938 18.298 7.65938 18.207 7.71831 18.1695C7.77724 18.1213 7.86831 18.1588 7.91653 18.2391C7.97545 18.3195 7.97545 18.4159 7.91653 18.4588ZM7.56831 17.9391C7.5201 17.9873 7.43974 17.9605 7.38081 17.907C7.32188 17.8373 7.31117 17.757 7.35938 17.7195C7.4076 17.6713 7.48795 17.698 7.54688 17.7516C7.60581 17.8213 7.61653 17.9016 7.56831 17.9391ZM7.20938 17.5427C7.18795 17.5909 7.11831 17.6016 7.05938 17.5641C6.98974 17.532 6.9576 17.473 6.97902 17.4248C7.00045 17.3927 7.05938 17.3766 7.12902 17.4034C7.19867 17.4409 7.23081 17.4998 7.20938 17.5427Z" fill="black"/>
</g>
<defs>
<clipPath id="clip0_1352_7942">
<rect width="24" height="27.4286" fill="white" transform="translate(0.705811 0.346191)"/>
</clipPath>
</defs>
</svg>
