<svg width="25" height="25" viewBox="0 0 25 25" fill="none" xmlns="http://www.w3.org/2000/svg">
<path d="M23.9004 14.002L22.6693 10.1696L20.2296 2.57384C20.1041 2.18307 19.5575 2.18307 19.4319 2.57384L16.9921 10.1696H8.89032L6.45044 2.57384C6.32495 2.18307 5.77838 2.18307 5.65282 2.57384L3.21308 10.1696L1.98211 14.002C1.86978 14.3515 1.99283 14.7345 2.28676 14.9505L12.941 22.7808L23.5952 14.9505C23.8892 14.7345 24.0126 14.3515 23.9004 14.002Z" fill="#FC6D26"/>
<path d="M12.941 22.7808L16.8805 10.1708H8.88049L12.941 22.7808Z" fill="#E24329"/>
<path d="M3.2005 10.1844L1.98208 14.0794C1.86981 14.4259 1.9928 14.8055 2.28679 15.0195L12.941 22.7808L3.2005 10.1844Z" fill="#FCA326"/>
<path d="M3.25201 10.1279H8.96356L6.57726 2.57764C6.45563 2.18131 5.71454 2.18131 5.59297 2.57764L3.25201 10.1279Z" fill="#E24329"/>
<path d="M22.6767 10.171L23.8999 14.0794C24.0121 14.4259 23.8892 14.8055 23.5952 15.0195L12.941 22.7808L22.6767 10.171Z" fill="#FCA326"/>
<path d="M22.6304 10.1533H16.8878L19.3047 2.57789C19.4263 2.18156 20.1986 2.18156 20.3201 2.57789L22.6304 10.1533Z" fill="#E24329"/>
</svg>
