<svg width="44" height="24" viewBox="0 0 44 24" fill="none" xmlns="http://www.w3.org/2000/svg">
<path d="M25.3431 7.50787H26.101L28.2613 5.34745L28.3674 4.43022C27.1299 3.33785 25.6343 2.57902 24.022 2.22541C22.4097 1.8718 20.7338 1.93508 19.1528 2.40928C17.5717 2.88348 16.1376 3.75295 14.986 4.93554C13.8343 6.11813 13.0032 7.57481 12.571 9.16797C12.8116 9.06932 13.0782 9.05333 13.329 9.12249L17.6495 8.40993C17.6495 8.40993 17.8693 8.04607 17.983 8.06882C18.9088 7.05203 20.1881 6.42758 21.5592 6.3233C22.9303 6.21902 24.2894 6.64279 25.3582 7.50787H25.3431Z" fill="#EA4335"/>
<path d="M31.3392 9.1667C30.8427 7.33803 29.8232 5.69407 28.4058 4.43652L25.3739 7.46869C26.0058 7.98504 26.5121 8.63814 26.8548 9.37875C27.1976 10.1194 27.3676 10.9281 27.3522 11.744V12.2822C27.7066 12.2822 28.0575 12.352 28.3849 12.4877C28.7122 12.6233 29.0097 12.8221 29.2603 13.0727C29.5109 13.3232 29.7096 13.6207 29.8452 13.9482C29.9808 14.2756 30.0506 14.6265 30.0506 14.9809C30.0506 15.3353 29.9808 15.6862 29.8452 16.0136C29.7096 16.341 29.5109 16.6385 29.2603 16.8891C29.0097 17.1397 28.7122 17.3385 28.3849 17.4741C28.0575 17.6097 27.7066 17.6795 27.3522 17.6795H21.9553L21.4172 18.2253V21.4621L21.9553 22.0003H27.3522C28.8593 22.0121 30.3301 21.5384 31.5471 20.6493C32.7641 19.7603 33.6626 18.5031 34.1097 17.0638C34.5569 15.6244 34.5289 14.0794 34.03 12.6572C33.531 11.2349 32.5876 10.0111 31.3392 9.1667Z" fill="#4285F4"/>
<path d="M16.5512 21.9692H21.948V17.6483H16.5512C16.1667 17.6483 15.7867 17.5655 15.4369 17.4058L14.6789 17.6408L12.5035 19.8012L12.314 20.5592C13.534 21.4805 15.0225 21.9758 16.5512 21.9692Z" fill="#34A853"/>
<path d="M16.5512 7.95219C15.089 7.96093 13.6659 8.4262 12.4809 9.28301C11.2958 10.1398 10.4079 11.3454 9.94125 12.7313C9.47457 14.1173 9.45239 15.6144 9.87779 17.0136C10.3032 18.4128 11.155 19.6441 12.3141 20.5357L15.4446 17.405C15.0468 17.2252 14.6985 16.9516 14.4296 16.6077C14.1608 16.2637 13.9794 15.8597 13.901 15.4302C13.8226 15.0007 13.8496 14.5587 13.9796 14.1419C14.1097 13.7252 14.3388 13.3462 14.6475 13.0375C14.9562 12.7288 15.3352 12.4996 15.7519 12.3695C16.1686 12.2395 16.6107 12.2125 17.0401 12.2909C17.4695 12.3693 17.8736 12.5507 18.2175 12.8196C18.5614 13.0884 18.835 13.4367 19.0147 13.8346L22.1452 10.7039C21.4881 9.84484 20.6413 9.14944 19.6708 8.67208C18.7004 8.19472 17.6327 7.94834 16.5512 7.95219Z" fill="#FBBC05"/>
</svg>
