<svg width="24" height="24" viewBox="0 0 24 24" fill="none" xmlns="http://www.w3.org/2000/svg">
<path d="M5.20897 21.6007L0.287145 13.0755C0.0979135 12.7478 -0.00170898 12.376 -0.00170898 11.9975C-0.00170898 11.619 0.0979135 11.2472 0.287145 10.9195L5.20897 2.39452C5.39823 2.06671 5.67044 1.7945 5.99826 1.60525C6.32607 1.416 6.69793 1.31638 7.07644 1.31641H16.9201C17.2986 1.31642 17.6704 1.41605 17.9982 1.6053C18.3259 1.79455 18.5981 2.06674 18.7874 2.39452L23.7092 10.9195C23.8985 11.2473 23.9981 11.6191 23.9981 11.9976C23.9981 12.3761 23.8985 12.7479 23.7092 13.0757L18.7874 21.6005C18.5981 21.9283 18.3259 22.2005 17.9982 22.3897C17.6704 22.579 17.2986 22.6786 16.9201 22.6786H7.07644C6.69792 22.6786 6.32606 22.579 5.99824 22.3898C5.67043 22.2005 5.39821 21.9285 5.20897 21.6007Z" fill="url(#paint0_linear_1352_7928)"/>
<mask id="mask0_1352_7928" style="mask-type:luminance" maskUnits="userSpaceOnUse" x="-1" y="1" width="25" height="22">
<path d="M5.20921 21.6007L0.28739 13.0755C0.0981576 12.7478 -0.00146484 12.376 -0.00146484 11.9975C-0.00146484 11.619 0.0981576 11.2472 0.28739 10.9195L5.20921 2.39452C5.39844 2.06673 5.67062 1.79452 5.9984 1.60527C6.32619 1.41602 6.69801 1.3164 7.0765 1.31641H16.9201C17.2987 1.31638 17.6705 1.416 17.9983 1.60525C18.3261 1.7945 18.5984 2.06671 18.7876 2.39452L23.7094 10.9195C23.8987 11.2473 23.9984 11.6191 23.9984 11.9976C23.9984 12.3761 23.8987 12.7479 23.7094 13.0757L18.7876 21.6005C18.5984 21.9283 18.3262 22.2005 17.9983 22.3898C17.6705 22.579 17.2987 22.6786 16.9201 22.6786H7.0765C6.69801 22.6786 6.32619 22.579 5.9984 22.3897C5.67062 22.2005 5.39844 21.9283 5.20921 21.6005V21.6007Z" fill="white"/>
</mask>
<g mask="url(#mask0_1352_7928)">
<path opacity="0.07" d="M9.24454 10.0995L7.93018 11.4101L9.0471 12.5272L7.94124 14.4915L16.3102 22.8606L18.3382 22.861L22.2987 15.7479L16.0275 9.47607L9.24454 10.0995Z" fill="black"/>
</g>
<path d="M15.8796 9.42353H8.11043C7.98537 9.42353 7.88318 9.5259 7.88318 9.65115V11.2573C7.88318 11.3821 7.98555 11.4845 8.11043 11.4845H15.8796C16.0047 11.4845 16.107 11.3821 16.107 11.2573V9.65078C16.107 9.5259 16.0048 9.42334 15.8798 9.42334M14.6768 10.9188C14.5536 10.9185 14.4356 10.8694 14.3486 10.7822C14.2615 10.6951 14.2126 10.577 14.2124 10.4538C14.2123 10.3928 14.2243 10.3324 14.2476 10.276C14.2709 10.2197 14.3051 10.1685 14.3483 10.1253C14.3914 10.0822 14.4426 10.048 14.499 10.0246C14.5554 10.0013 14.6158 9.98935 14.6768 9.9894C14.9337 9.9894 15.1418 10.1962 15.1418 10.4538C15.1418 10.5149 15.1298 10.5754 15.1064 10.6318C15.083 10.6882 15.0488 10.7395 15.0056 10.7826C14.9624 10.8258 14.9112 10.8601 14.8547 10.8834C14.7983 10.9068 14.7379 10.9188 14.6768 10.9188ZM15.8796 12.5109L8.11043 12.5112C7.98537 12.5112 7.88318 12.6136 7.88318 12.7389V14.3448C7.88318 14.4697 7.98555 14.5722 8.11043 14.5722H15.8796C16.0047 14.5722 16.107 14.4697 16.107 14.3448V12.7385C16.107 12.6136 16.0047 12.5109 15.8796 12.5109ZM14.6768 14.0064C14.5536 14.0061 14.4356 13.9569 14.3485 13.8698C14.2615 13.7826 14.2125 13.6645 14.2124 13.5414C14.2123 13.4804 14.2243 13.4199 14.2476 13.3636C14.2709 13.3072 14.3051 13.256 14.3483 13.2128C14.3914 13.1697 14.4426 13.1355 14.499 13.1122C14.5554 13.0889 14.6158 13.0769 14.6768 13.0769C14.7394 13.0744 14.8018 13.0846 14.8604 13.1068C14.919 13.129 14.9724 13.1628 15.0176 13.2062C15.0628 13.2496 15.0987 13.3017 15.1233 13.3593C15.1478 13.4169 15.1605 13.4789 15.1605 13.5415C15.1605 13.6042 15.1478 13.6662 15.1233 13.7238C15.0987 13.7814 15.0628 13.8335 15.0176 13.8769C14.9724 13.9203 14.919 13.9541 14.8604 13.9763C14.8018 13.9985 14.7394 14.0089 14.6768 14.0064Z" fill="white"/>
<defs>
<linearGradient id="paint0_linear_1352_7928" x1="11.9983" y1="1.31659" x2="11.9983" y2="22.6454" gradientUnits="userSpaceOnUse">
<stop stop-color="#4387FD"/>
<stop offset="1" stop-color="#4683EA"/>
</linearGradient>
</defs>
</svg>
