<svg width="24" height="24" viewBox="0 0 24 24" fill="none" xmlns="http://www.w3.org/2000/svg">
<g clip-path="url(#clip0_1390_2685)">
<path d="M10.5754 23.9847C8.32885 23.8228 6.10845 23.2573 4.7467 22.5003C3.97105 22.0691 3.38011 21.5392 3.14822 21.0669L3.01025 20.7859V11.9717V3.15752L3.11943 2.93585C3.6073 1.94534 5.16433 1.05238 7.33786 0.516599C8.07567 0.334713 9.14081 0.153583 10.0098 0.0622459C10.8971 -0.0310456 13.2489 -0.0168519 14.134 0.0872738C16.4865 0.363651 18.4882 0.982391 19.7218 1.81447C20.1976 2.13535 20.6857 2.64879 20.8511 3.00221L20.9929 3.30522L20.9808 12.0928L20.9686 20.8803L20.8548 21.1116C20.7922 21.2387 20.6031 21.4889 20.4346 21.6675C19.4089 22.7549 17.2086 23.5593 14.3226 23.902C13.7344 23.9719 11.1789 24.0282 10.5754 23.9847ZM14.7154 16.4321C14.7067 16.4096 14.3709 16.1104 13.9691 15.7673C13.5673 15.4241 13.2212 15.1272 13.2 15.1075C13.1789 15.0878 13.2531 15.018 13.365 14.9524C13.4769 14.8868 13.6913 14.7043 13.8414 14.5469C14.2804 14.0866 14.4876 13.5179 14.4876 12.773C14.4876 12.0397 14.2642 11.4481 13.8167 10.9964C13.3657 10.5412 12.8479 10.3456 12.0939 10.3456C10.9316 10.3456 10.0389 11.0238 9.754 12.1233C9.65599 12.5015 9.65651 13.2657 9.75502 13.6011C10.012 14.4758 10.7117 15.1112 11.5827 15.2603C11.8774 15.3108 11.9173 15.3326 12.1182 15.5523C12.2376 15.6828 12.4827 15.9434 12.6628 16.1314L12.9902 16.4731H13.8607C14.3394 16.4731 14.724 16.4547 14.7154 16.4321ZM11.7303 13.995C11.5207 13.8857 11.4415 13.8009 11.322 13.558C11.2297 13.3704 11.2139 13.2636 11.2129 12.8202C11.2119 12.3695 11.2262 12.2722 11.3226 12.0765C11.4802 11.7563 11.6975 11.6047 12.0336 11.5804C12.5015 11.5465 12.7715 11.7761 12.913 12.3279C13.0866 13.0044 12.8957 13.7237 12.4794 13.9624C12.261 14.0876 11.9352 14.1018 11.7303 13.995ZM7.87207 15.2507C8.78468 15.0777 9.30274 14.5469 9.30274 13.785C9.30274 13.1092 8.96828 12.7153 8.0439 12.3026C7.51474 12.0664 7.32307 11.9181 7.32307 11.7449C7.32307 11.6013 7.50496 11.444 7.71671 11.4044C7.92346 11.3658 8.47182 11.4611 8.79563 11.5919L9.06707 11.7015V11.1007V10.4998L8.77247 10.4345C8.5904 10.3941 8.20781 10.3699 7.77085 10.3711C7.1519 10.3711 7.0307 10.3862 6.79778 10.4787C6.11739 10.7488 5.79453 11.2089 5.79969 11.901C5.80453 12.549 6.14634 12.9531 6.99704 13.3167C7.49897 13.5313 7.70016 13.6946 7.70016 13.8877C7.70016 14.2979 7.01663 14.3484 6.29295 13.9916C6.09476 13.8939 5.9167 13.806 5.89725 13.7962C5.87781 13.7865 5.86191 14.0672 5.86191 14.42C5.86191 15.0585 5.86259 15.0616 5.97819 15.1056C6.41355 15.2711 7.37577 15.3449 7.87207 15.2507ZM18.3055 14.6584V14.1164H17.4806H16.6558V12.2545V10.3927H15.9252H15.1946V12.7966V15.2004H16.75H18.3055V14.6584ZM13.2149 5.15953C14.6667 5.05883 15.755 4.86871 16.7127 4.54852C17.6667 4.22952 18.2303 3.84354 18.3564 3.42279C18.4049 3.26065 18.4015 3.19915 18.3336 3.02138C18.0292 2.22441 16.3289 1.61209 13.7308 1.36382C12.6194 1.25761 10.5982 1.29204 9.53848 1.43518C7.92155 1.65365 6.60933 2.05945 6.02587 2.52145C4.84558 3.45608 6.09374 4.48404 8.99638 4.96788C10.255 5.17768 11.8855 5.25175 13.2149 5.15953Z" fill="#00BCF2"/>
</g>
<defs>
<clipPath id="clip0_1390_2685">
<rect width="24" height="24" fill="white"/>
</clipPath>
</defs>
</svg>
