<svg width="48" height="48" viewBox="0 0 48 48" fill="none" xmlns="http://www.w3.org/2000/svg">
<circle cx="35.5" cy="12.5" r="12.5" fill="url(#paint0_linear_1244_8779)"/>
<g clip-path="url(#clip0_1244_8779)">
<path fill-rule="evenodd" clip-rule="evenodd" d="M39.06 12.4127C39.325 12.1284 39.4692 11.7523 39.4623 11.3637C39.4555 10.9751 39.2981 10.6043 39.0232 10.3295C38.7484 10.0547 38.3776 9.89723 37.989 9.89037C37.6004 9.88351 37.2243 10.0278 36.94 10.2927L34.36 12.8727C32.7263 11.735 30.7444 11.2083 28.7615 11.3849C26.7785 11.5615 24.9209 12.4302 23.514 13.8387L22.354 14.9987C21.9962 15.3585 21.7953 15.8453 21.7953 16.3527C21.7953 16.8602 21.9962 17.347 22.354 17.7067L31.646 26.9987C32.0058 27.3566 32.4926 27.5574 33 27.5574C33.5074 27.5574 33.9942 27.3566 34.354 26.9987L35.514 25.8387C36.9228 24.4321 37.7919 22.5746 37.9688 20.5916C38.1458 18.6086 37.6195 16.6266 36.482 14.9927L39.06 12.4127ZM22.06 22.2927C22.3409 22.574 22.4987 22.9552 22.4987 23.3527C22.4987 23.7502 22.3409 24.1315 22.06 24.4127L19.56 26.9127L22.44 29.7927L24.94 27.2927C25.2243 27.0278 25.6004 26.8835 25.989 26.8904C26.3776 26.8972 26.7484 27.0546 27.0232 27.3295C27.2981 27.6043 27.4555 27.9751 27.4623 28.3637C27.4692 28.7523 27.325 29.1284 27.06 29.4127L24.56 31.9127L25.646 32.9987C26.0038 33.3585 26.2047 33.8453 26.2047 34.3527C26.2047 34.8602 26.0038 35.3469 25.646 35.7067L24.486 36.8667C23.0794 38.2756 21.2219 39.1446 19.2389 39.3216C17.2559 39.4985 15.2739 38.9722 13.64 37.8347L11.06 40.4147C10.777 40.6878 10.398 40.8388 10.0047 40.8352C9.6114 40.8316 9.23525 40.6737 8.95727 40.3955C8.67929 40.1172 8.52171 39.7409 8.51848 39.3476C8.51525 38.9543 8.66663 38.5755 8.94 38.2927L11.52 35.7127C10.3823 34.079 9.85559 32.0972 10.0322 30.1142C10.2088 28.1312 11.0775 26.2736 12.486 24.8667L13.646 23.7067C14.0058 23.3489 14.4926 23.148 15 23.148C15.5074 23.148 15.9942 23.3489 16.354 23.7067L17.44 24.7927L19.94 22.2927C20.2212 22.0118 20.6025 21.854 21 21.854C21.3975 21.854 21.7787 22.0118 22.06 22.2927ZM15 26.5927L14.606 26.9867C13.5939 28.0189 13.0301 29.4089 13.0372 30.8545C13.0443 32.3001 13.6218 33.6845 14.644 34.7067C15.6662 35.7289 17.0506 36.3064 18.4962 36.3135C19.9418 36.3206 21.3318 35.7568 22.364 34.7447L22.758 34.3507L15 26.5927ZM33.394 23.7147L33 24.1087L25.242 16.3527L25.636 15.9587C26.6682 14.9466 28.0582 14.3828 29.5038 14.39C30.9494 14.3971 32.3338 14.9745 33.356 15.9967C34.3782 17.0189 34.9556 18.4033 34.9628 19.8489C34.9699 21.2945 34.4061 22.6825 33.394 23.7147Z" fill="#1B242C"/>
</g>
<defs>
<linearGradient id="paint0_linear_1244_8779" x1="45" y1="3" x2="26.5" y2="21.5" gradientUnits="userSpaceOnUse">
<stop stop-color="#2E4ACD" stop-opacity="0.7"/>
<stop offset="1" stop-color="#2E4ACD" stop-opacity="0"/>
</linearGradient>
<clipPath id="clip0_1244_8779">
<rect width="32" height="32" fill="white" transform="translate(8 9.35254)"/>
</clipPath>
</defs>
</svg>
