<svg width="25" height="30" viewBox="0 0 25 30" fill="none" xmlns="http://www.w3.org/2000/svg">
<path fill-rule="evenodd" clip-rule="evenodd" d="M21.9217 6.46045L17.2675 15.3203L21.9217 24.1801L23.8283 23.1147V7.52587L21.9217 6.46045Z" fill="#E25444"/>
<path fill-rule="evenodd" clip-rule="evenodd" d="M21.9217 6.46045L12.6133 7.52587L7.875 15.3203L12.6133 23.1147L21.9217 24.1801V6.46045Z" fill="#7B1D13"/>
<path fill-rule="evenodd" clip-rule="evenodd" d="M3.1367 6.46045L1.62268 7.13335V23.5072L3.1367 24.1801L12.6133 15.3203L3.1367 6.46045Z" fill="#58150D"/>
<path fill-rule="evenodd" clip-rule="evenodd" d="M3.11633 6.44189L12.6259 9.08363V21.7939L3.11633 24.1864V6.44189Z" fill="#E25444"/>
<path fill-rule="evenodd" clip-rule="evenodd" d="M12.6309 10.4793L8.59302 9.83129L12.6309 5.24561L16.6587 9.83129L12.6309 10.4793Z" fill="#58150D"/>
<path fill-rule="evenodd" clip-rule="evenodd" d="M16.6587 9.83129L12.6259 10.4892L8.59302 9.83129V5.24561" fill="#58150D"/>
<path fill-rule="evenodd" clip-rule="evenodd" d="M12.6309 20.0991L8.59302 20.8468L12.6309 24.7845L16.6587 20.8468L12.6309 20.0991Z" fill="#58150D"/>
<path fill-rule="evenodd" clip-rule="evenodd" d="M12.6133 1.80615L8.57593 3.93699V9.82484L12.6259 8.68468L12.6133 1.80615Z" fill="#7B1D13"/>
<path fill-rule="evenodd" clip-rule="evenodd" d="M12.6259 11.9248L8.59302 12.3635V18.2422L12.6259 18.7036V11.9248Z" fill="#7B1D13"/>
<path fill-rule="evenodd" clip-rule="evenodd" d="M12.6259 21.8437L8.59302 20.8325V26.6118L12.6259 28.7222V21.8437Z" fill="#7B1D13"/>
<path fill-rule="evenodd" clip-rule="evenodd" d="M16.6587 20.8325L12.6259 21.844V28.7222L16.6587 26.6118V20.8325Z" fill="#E25444"/>
<path fill-rule="evenodd" clip-rule="evenodd" d="M12.6259 11.9248L16.6587 12.3635V18.2422L12.6259 18.7036V11.9248Z" fill="#E25444"/>
<path fill-rule="evenodd" clip-rule="evenodd" d="M12.6133 1.80615L16.6507 3.93699V9.82484L12.6133 8.70335V1.80615Z" fill="#E25444"/>
</svg>
