<svg width="24" height="24" viewBox="0 0 24 24" fill="none" xmlns="http://www.w3.org/2000/svg">
<path d="M23.1249 3.25732C14.9197 4.856 7.04077 6.77801 0.0234375 9.56492C0.0234375 7.46239 0.0234375 5.3599 0.0234375 3.25732C7.72378 3.25732 15.4245 3.25732 23.1249 3.25732ZM12.9181 16.4581C8.88952 17.6772 4.5472 18.5014 0.0234375 19.1862C0.0234375 17.4784 0.0234375 15.7706 0.0234375 14.0628C3.18248 13.8369 6.20334 13.5727 9.35184 13.2246C11.6169 12.9739 13.9435 12.7113 16.4046 12.6522C17.2403 12.6322 18.0982 12.6256 18.7202 12.8651C18.9264 12.9447 19.1695 13.101 19.1859 13.3443C19.213 13.746 18.7522 14.0505 18.4939 14.2359C18.1777 14.4626 17.8304 14.6392 17.4958 14.7947C16.7722 15.1314 16.0452 15.4442 15.2736 15.6996C14.5091 15.9526 13.7172 16.2164 12.9181 16.4581ZM1.04817 17.0172C0.772734 17.0247 0.727312 17.3922 0.954984 17.4695C1.32267 17.5944 1.39809 17.0074 1.04817 17.0172ZM1.04817 15.5133C0.777234 15.5279 0.734719 15.8894 0.954984 15.9657C1.30898 16.0887 1.4092 15.4939 1.04817 15.5133ZM1.85991 17.0172C1.58311 17.0247 1.53942 17.3924 1.76672 17.4695C2.13295 17.5938 2.21058 17.0074 1.85991 17.0172ZM1.85991 15.5133C1.59459 15.5275 1.53905 15.8885 1.76672 15.9657C2.11992 16.0857 2.22108 15.4939 1.85991 15.5133ZM0.0234375 20.6899C0.0234375 20.7076 0.0234375 20.7253 0.0234375 20.7431C8.00822 20.7431 15.992 20.7431 23.9766 20.7431C23.9766 18.645 23.9766 16.547 23.9766 14.4488C21.2224 15.4605 18.4039 16.4716 15.4333 17.2433C10.5043 18.5238 5.41505 19.8684 0.0234375 20.6899ZM9.831 7.98134C8.7885 8.35873 7.74056 8.78989 6.83686 9.36532C6.59555 9.51889 6.16355 9.81406 6.17138 10.1505C6.17588 10.3392 6.34702 10.4885 6.49088 10.563C6.97448 10.8139 7.88559 10.7986 8.64661 10.7626C13.9017 10.5143 18.7996 9.70118 23.9766 9.41853C23.9766 7.81737 23.9766 6.21603 23.9766 4.61468C18.9224 5.36571 14.1232 6.42832 9.831 7.98134Z" fill="black"/>
</svg>
